<?xml version="1.0" encoding="utf-8"?>
<!-- Generator: Adobe Illustrator 18.1.1, SVG Export Plug-In . SVG Version: 6.00 Build 0)  -->
<!DOCTYPE svg PUBLIC "-//W3C//DTD SVG 1.0//EN" "http://www.w3.org/TR/2001/REC-SVG-20010904/DTD/svg10.dtd">
<svg version="1.0" id="Layer_1" xmlns="http://www.w3.org/2000/svg" xmlns:xlink="http://www.w3.org/1999/xlink" x="0px" y="0px"
	 viewBox="0 0 116.2 34.5" enable-background="new 0 0 116.2 34.5" xml:space="preserve">
<g>
	<g>
		<path fill="#FFFFFF" d="M114.7,30.2c0,1.8-1.5,3.3-3.3,3.3H4.5c-1.8,0-3.3-1.5-3.3-3.3v-26c0-1.8,1.5-3.3,3.3-3.3h106.9
			c1.8,0,3.3,1.5,3.3,3.3L114.7,30.2"/>
	</g>
	<path d="M114.7,30.2c0,1.8-1.5,3.3-3.3,3.3H4.5c-1.8,0-3.3-1.5-3.3-3.3v-26c0-1.8,1.5-3.3,3.3-3.3h106.9c1.8,0,3.3,1.5,3.3,3.3
		L114.7,30.2"/>
	<path fill="#FFFFFF" d="M26.2,17c0-2.7,2.2-4.1,2.4-4.1c-1.3-1.9-3.3-2.1-4-2.2c-1.7-0.2-3.3,1-4.2,1c-0.9,0-2.2-1-3.6-1
		c-1.8,0-3.5,1.1-4.5,2.7c-1.9,3.3-0.5,8.3,1.4,11c0.9,1.3,2,2.8,3.4,2.8c1.4-0.1,1.9-0.9,3.6-0.9c1.7,0,2.1,0.9,3.6,0.8
		c1.5,0,2.4-1.3,3.3-2.7c1.1-1.5,1.5-3,1.5-3.1C29,21.4,26.2,20.3,26.2,17"/>
	<path fill="#FFFFFF" d="M23.4,8.9c0.7-0.9,1.3-2.2,1.1-3.5c-1.1,0-2.4,0.7-3.2,1.7c-0.7,0.8-1.3,2.1-1.1,3.4
		C21.4,10.5,22.7,9.8,23.4,8.9"/>
	<path fill="#FFFFFF" d="M46.2,27h-1.9l-1.1-3.3h-3.7l-1,3.3h-1.9l3.7-11.3h2.3L46.2,27z M42.9,22.2l-1-3c-0.1-0.3-0.3-1-0.6-2.1h0
		c-0.1,0.5-0.3,1.2-0.5,2.1l-0.9,3H42.9z"/>
	<path fill="#FFFFFF" d="M55.6,22.8c0,1.4-0.4,2.5-1.1,3.3c-0.7,0.7-1.5,1.1-2.5,1.1c-1.1,0-1.9-0.4-2.3-1.2v4.3h-1.8v-8.8
		c0-0.9,0-1.8-0.1-2.7h1.6l0.1,1.3h0c0.6-1,1.5-1.5,2.8-1.5c1,0,1.8,0.4,2.4,1.1C55.3,20.5,55.6,21.5,55.6,22.8 M53.7,22.8
		c0-0.8-0.2-1.5-0.5-2c-0.4-0.5-0.9-0.8-1.6-0.8c-0.4,0-0.9,0.2-1.2,0.4c-0.4,0.3-0.6,0.7-0.7,1.2c-0.1,0.2-0.1,0.4-0.1,0.6v1.4
		c0,0.6,0.2,1.1,0.5,1.5c0.4,0.4,0.8,0.6,1.4,0.6c0.7,0,1.2-0.3,1.6-0.8C53.5,24.4,53.7,23.7,53.7,22.8"/>
	<path fill="#FFFFFF" d="M65,22.8c0,1.4-0.4,2.5-1.1,3.3c-0.7,0.7-1.5,1.1-2.5,1.1c-1.1,0-1.9-0.4-2.3-1.2v4.3h-1.8v-8.8
		c0-0.9,0-1.8-0.1-2.7h1.6l0.1,1.3h0c0.6-1,1.5-1.5,2.8-1.5c1,0,1.8,0.4,2.4,1.1C64.7,20.5,65,21.5,65,22.8 M63.1,22.8
		c0-0.8-0.2-1.5-0.5-2c-0.4-0.5-0.9-0.8-1.6-0.8c-0.4,0-0.9,0.2-1.2,0.4c-0.4,0.3-0.6,0.7-0.7,1.2C59,21.9,59,22.1,59,22.2v1.4
		c0,0.6,0.2,1.1,0.5,1.5c0.4,0.4,0.8,0.6,1.4,0.6c0.7,0,1.2-0.3,1.6-0.8C62.9,24.4,63.1,23.7,63.1,22.8"/>
	<path fill="#FFFFFF" d="M75.5,23.8c0,1-0.3,1.8-1,2.4c-0.7,0.7-1.8,1-3.1,1c-1.2,0-2.2-0.2-2.9-0.7l0.4-1.5
		c0.8,0.5,1.7,0.7,2.6,0.7c0.7,0,1.2-0.2,1.6-0.5c0.4-0.3,0.6-0.7,0.6-1.2c0-0.5-0.2-0.8-0.5-1.2c-0.3-0.3-0.8-0.6-1.6-0.9
		c-2-0.7-3-1.8-3-3.2c0-0.9,0.4-1.7,1.1-2.3c0.7-0.6,1.6-0.9,2.8-0.9c1,0,1.9,0.2,2.6,0.5l-0.5,1.5C74,17.1,73.3,17,72.5,17
		c-0.6,0-1.1,0.2-1.5,0.5c-0.3,0.3-0.5,0.6-0.5,1c0,0.4,0.2,0.8,0.5,1.1c0.3,0.3,0.9,0.6,1.6,0.9c1,0.4,1.7,0.9,2.2,1.4
		C75.3,22.3,75.5,23,75.5,23.8"/>
	<path fill="#FFFFFF" d="M81.5,20.1h-2v4c0,1,0.4,1.5,1.1,1.5c0.3,0,0.6,0,0.8-0.1l0.1,1.4c-0.4,0.1-0.8,0.2-1.4,0.2
		c-0.7,0-1.3-0.2-1.7-0.7c-0.4-0.4-0.6-1.2-0.6-2.2v-4.1h-1.2v-1.4h1.2v-1.5l1.8-0.5v2h2V20.1z"/>
	<path fill="#FFFFFF" d="M90.5,22.8c0,1.3-0.4,2.3-1.1,3.1c-0.8,0.8-1.7,1.2-3,1.2c-1.2,0-2.2-0.4-2.9-1.2c-0.7-0.8-1.1-1.8-1.1-3
		c0-1.3,0.4-2.3,1.1-3.1c0.7-0.8,1.7-1.2,3-1.2c1.2,0,2.2,0.4,2.9,1.2C90.2,20.6,90.5,21.6,90.5,22.8 M88.7,22.8
		c0-0.7-0.2-1.4-0.5-1.9c-0.4-0.6-0.9-1-1.6-1c-0.7,0-1.3,0.3-1.7,1c-0.3,0.5-0.5,1.2-0.5,2c0,0.8,0.2,1.4,0.5,1.9
		c0.4,0.7,0.9,1,1.7,1c0.7,0,1.2-0.3,1.6-1C88.5,24.2,88.7,23.6,88.7,22.8"/>
	<path fill="#FFFFFF" d="M96.5,20.4c-0.2,0-0.4,0-0.6,0c-0.6,0-1.1,0.2-1.5,0.7c-0.3,0.4-0.5,1-0.5,1.6V27h-1.8v-5.6
		c0-0.9,0-1.8-0.1-2.6h1.6l0.1,1.6h0.1c0.2-0.5,0.5-1,0.9-1.3c0.4-0.3,0.8-0.4,1.3-0.4c0.2,0,0.3,0,0.5,0L96.5,20.4z"/>
	<path fill="#FFFFFF" d="M104.6,22.5c0,0.3,0,0.6-0.1,0.8h-5.4c0,0.8,0.3,1.4,0.8,1.9c0.5,0.4,1.1,0.6,1.8,0.6
		c0.8,0,1.5-0.1,2.2-0.4l0.3,1.3c-0.8,0.3-1.7,0.5-2.7,0.5c-1.3,0-2.3-0.4-3-1.1c-0.7-0.7-1.1-1.7-1.1-3c0-1.2,0.3-2.3,1-3.1
		c0.7-0.9,1.7-1.3,2.9-1.3c1.2,0,2.1,0.4,2.7,1.3C104.3,20.6,104.6,21.5,104.6,22.5 M102.8,22c0-0.5-0.1-1-0.4-1.4
		c-0.3-0.5-0.8-0.8-1.4-0.8c-0.6,0-1.1,0.2-1.4,0.7c-0.3,0.4-0.5,0.9-0.5,1.4L102.8,22z"/>
	<path fill="#FFFFFF" d="M42.3,8.6c0,1-0.3,1.8-0.9,2.3c-0.6,0.5-1.3,0.7-2.4,0.7c-0.5,0-0.9,0-1.3-0.1V6.1C38.2,6,38.7,6,39.2,6
		c1,0,1.7,0.2,2.2,0.6C42,7.1,42.3,7.7,42.3,8.6 M41.3,8.7c0-0.6-0.2-1.1-0.5-1.5c-0.3-0.3-0.8-0.5-1.5-0.5c-0.3,0-0.5,0-0.7,0.1
		v4.2c0.1,0,0.3,0,0.6,0c0.7,0,1.2-0.2,1.6-0.6C41.2,9.9,41.3,9.4,41.3,8.7"/>
	<path fill="#FFFFFF" d="M47,9.5c0,0.6-0.2,1.1-0.5,1.5c-0.4,0.4-0.9,0.6-1.5,0.6c-0.6,0-1.1-0.2-1.4-0.6c-0.3-0.4-0.5-0.9-0.5-1.5
		c0-0.6,0.2-1.1,0.5-1.5c0.4-0.4,0.8-0.6,1.5-0.6c0.6,0,1.1,0.2,1.4,0.6C46.9,8.4,47,8.9,47,9.5 M46.1,9.5c0-0.4-0.1-0.7-0.2-0.9
		c-0.2-0.3-0.5-0.5-0.8-0.5c-0.4,0-0.6,0.2-0.8,0.5c-0.2,0.3-0.2,0.6-0.2,1c0,0.4,0.1,0.7,0.2,0.9c0.2,0.3,0.5,0.5,0.8,0.5
		c0.3,0,0.6-0.2,0.8-0.5C46,10.2,46.1,9.9,46.1,9.5"/>
	<path fill="#FFFFFF" d="M53.5,7.5l-1.3,4h-0.8l-0.5-1.7c-0.1-0.4-0.2-0.9-0.3-1.3h0c-0.1,0.4-0.2,0.9-0.3,1.3l-0.6,1.7h-0.8l-1.2-4
		h0.9L49,9.5c0.1,0.5,0.2,0.9,0.3,1.3h0c0.1-0.3,0.2-0.8,0.3-1.3l0.6-1.9h0.7l0.5,1.9c0.1,0.5,0.2,0.9,0.3,1.3h0
		c0.1-0.4,0.2-0.9,0.3-1.3l0.5-1.9L53.5,7.5L53.5,7.5z"/>
	<path fill="#FFFFFF" d="M57.8,11.6h-0.9V9.3c0-0.7-0.3-1.1-0.8-1.1c-0.3,0-0.5,0.1-0.6,0.3c-0.2,0.2-0.2,0.4-0.2,0.7v2.4h-0.9V8.7
		c0-0.4,0-0.7,0-1.2h0.8l0,0.6h0c0.1-0.2,0.3-0.4,0.5-0.5c0.2-0.1,0.5-0.2,0.8-0.2c0.4,0,0.7,0.1,0.9,0.4c0.3,0.3,0.5,0.7,0.5,1.3
		V11.6z"/>
	<rect x="59.1" y="5.7" fill="#FFFFFF" width="0.9" height="5.9"/>
	<path fill="#FFFFFF" d="M65,9.5c0,0.6-0.2,1.1-0.5,1.5c-0.4,0.4-0.9,0.6-1.5,0.6c-0.6,0-1.1-0.2-1.4-0.6c-0.3-0.4-0.5-0.9-0.5-1.5
		c0-0.6,0.2-1.1,0.5-1.5c0.4-0.4,0.8-0.6,1.5-0.6c0.6,0,1.1,0.2,1.4,0.6C64.9,8.4,65,8.9,65,9.5 M64.1,9.5c0-0.4-0.1-0.7-0.2-0.9
		c-0.2-0.3-0.5-0.5-0.8-0.5c-0.4,0-0.6,0.2-0.8,0.5c-0.2,0.3-0.2,0.6-0.2,1c0,0.4,0.1,0.7,0.2,0.9c0.2,0.3,0.5,0.5,0.8,0.5
		c0.3,0,0.6-0.2,0.8-0.5C64,10.2,64.1,9.9,64.1,9.5"/>
	<path fill="#FFFFFF" d="M69.1,11.6h-0.8l-0.1-0.5h0c-0.3,0.4-0.7,0.6-1.2,0.6c-0.4,0-0.7-0.1-0.9-0.4c-0.2-0.2-0.3-0.5-0.3-0.8
		c0-0.5,0.2-0.9,0.6-1.1c0.4-0.3,1-0.4,1.7-0.4V8.9c0-0.5-0.3-0.8-0.8-0.8c-0.4,0-0.7,0.1-1,0.3l-0.2-0.6c0.4-0.2,0.8-0.3,1.4-0.3
		c1.1,0,1.6,0.6,1.6,1.7v1.5C69.1,11,69.1,11.3,69.1,11.6 M68.2,10.2V9.6c-1,0-1.5,0.3-1.5,0.8c0,0.2,0.1,0.4,0.2,0.5
		c0.1,0.1,0.3,0.2,0.4,0.2c0.2,0,0.4-0.1,0.5-0.2c0.2-0.1,0.3-0.3,0.3-0.5L68.2,10.2z"/>
	<path fill="#FFFFFF" d="M73.9,11.6h-0.8l0-0.6h0c-0.3,0.5-0.7,0.7-1.3,0.7c-0.5,0-0.9-0.2-1.2-0.6c-0.3-0.4-0.5-0.9-0.5-1.5
		c0-0.6,0.2-1.2,0.5-1.6c0.3-0.4,0.8-0.6,1.2-0.6c0.5,0,0.9,0.2,1.1,0.5V5.7h0.9v4.8C73.9,10.9,73.9,11.2,73.9,11.6 M73,9.9V9.2
		c0-0.1,0-0.2,0-0.3c-0.1-0.2-0.2-0.4-0.3-0.5c-0.2-0.1-0.4-0.2-0.6-0.2c-0.3,0-0.6,0.1-0.8,0.4c-0.2,0.3-0.3,0.6-0.3,1
		c0,0.4,0.1,0.7,0.3,1c0.2,0.3,0.5,0.4,0.8,0.4c0.3,0,0.5-0.1,0.7-0.3C72.9,10.4,73,10.2,73,9.9"/>
	<path fill="#FFFFFF" d="M81,9.5c0,0.6-0.2,1.1-0.5,1.5c-0.4,0.4-0.9,0.6-1.5,0.6c-0.6,0-1.1-0.2-1.4-0.6c-0.3-0.4-0.5-0.9-0.5-1.5
		c0-0.6,0.2-1.1,0.5-1.5c0.4-0.4,0.8-0.6,1.5-0.6c0.6,0,1.1,0.2,1.4,0.6C80.9,8.4,81,8.9,81,9.5 M80.1,9.5c0-0.4-0.1-0.7-0.2-0.9
		c-0.2-0.3-0.5-0.5-0.8-0.5c-0.4,0-0.6,0.2-0.8,0.5c-0.2,0.3-0.2,0.6-0.2,1c0,0.4,0.1,0.7,0.2,0.9c0.2,0.3,0.5,0.5,0.8,0.5
		c0.3,0,0.6-0.2,0.8-0.5C80,10.2,80.1,9.9,80.1,9.5"/>
	<path fill="#FFFFFF" d="M85.6,11.6h-0.9V9.3c0-0.7-0.3-1.1-0.8-1.1c-0.3,0-0.5,0.1-0.6,0.3C83.1,8.7,83,8.9,83,9.2v2.4h-0.9V8.7
		c0-0.4,0-0.7,0-1.2h0.8l0,0.6h0C83,8,83.2,7.8,83.4,7.7c0.2-0.1,0.5-0.2,0.8-0.2c0.4,0,0.7,0.1,0.9,0.4c0.3,0.3,0.5,0.7,0.5,1.3
		V11.6z"/>
	<path fill="#FFFFFF" d="M91.1,8.2h-1v2c0,0.5,0.2,0.7,0.5,0.7c0.2,0,0.3,0,0.4,0l0,0.7c-0.2,0.1-0.4,0.1-0.7,0.1
		c-0.4,0-0.6-0.1-0.8-0.3c-0.2-0.2-0.3-0.6-0.3-1.1v-2h-0.6V7.5h0.6V6.8l0.9-0.3v1h1L91.1,8.2z"/>
	<path fill="#FFFFFF" d="M95.6,11.6h-0.9V9.3c0-0.7-0.3-1.1-0.8-1.1c-0.4,0-0.7,0.2-0.9,0.6c0,0.1,0,0.2,0,0.3v2.4h-0.9V5.7H93v2.4
		h0c0.3-0.4,0.7-0.7,1.2-0.7c0.4,0,0.7,0.1,0.9,0.4c0.3,0.3,0.5,0.8,0.5,1.3V11.6z"/>
	<path fill="#FFFFFF" d="M100.2,9.4c0,0.2,0,0.3,0,0.4h-2.7c0,0.4,0.1,0.7,0.4,0.9c0.2,0.2,0.5,0.3,0.9,0.3c0.4,0,0.8-0.1,1.1-0.2
		l0.1,0.6c-0.4,0.2-0.8,0.2-1.3,0.2c-0.6,0-1.1-0.2-1.5-0.5c-0.4-0.4-0.5-0.9-0.5-1.5c0-0.6,0.2-1.1,0.5-1.5
		c0.3-0.4,0.8-0.6,1.4-0.6c0.6,0,1,0.2,1.3,0.6C100.1,8.4,100.2,8.9,100.2,9.4 M99.3,9.1c0-0.3-0.1-0.5-0.2-0.7
		c-0.2-0.2-0.4-0.4-0.7-0.4c-0.3,0-0.5,0.1-0.7,0.4c-0.1,0.2-0.2,0.4-0.3,0.7H99.3z"/>
</g>
</svg>
