<?xml version="1.0" encoding="utf-8"?>
<!-- Generator: Adobe Illustrator 18.1.1, SVG Export Plug-In . SVG Version: 6.00 Build 0)  -->
<!DOCTYPE svg PUBLIC "-//W3C//DTD SVG 1.1//EN" "http://www.w3.org/Graphics/SVG/1.1/DTD/svg11.dtd">
<svg version="1.1" id="Layer_1" xmlns="http://www.w3.org/2000/svg" xmlns:xlink="http://www.w3.org/1999/xlink" x="0px" y="0px"
	 viewBox="0 0 100 100" enable-background="new 0 0 100 100" xml:space="preserve">
<path fill="#2A5D86" d="M36.6,36.4H69v-14H36.6c-17,0-30.8,13.7-30.8,30.5s13.9,30.5,31,30.5H69v-15H36.8c-8.5,0-15.7-7.3-15.7-16
	C21.1,43.6,28,36.4,36.6,36.4z M17.1,52.4c0,10.8,9,20,19.7,20H54v7H36.8c-14.9,0-27-11.9-27-26.5s12-26.5,26.8-26.5H54v6H36.6
	C25.8,32.4,17.1,41.4,17.1,52.4z"/>
<rect x="58" y="25.9" fill="#C5CF32" width="7.4" height="7.8"/>
<rect x="58" y="72.3" fill="#C5CF32" width="7.4" height="7.6"/>
<g>
	<g>
		<path fill="#FFFFFF" d="M74.9,25.4c2.2,0,2.2,2.4,4.5,2.4c2.2,0,2.2-2.4,4.5-2.4c2.3,0,2.3,2.4,4.5,2.4c2.3,0,2.3-2.4,4.5-2.4"/>
	</g>
	<path fill="#2A5D86" d="M88.4,29c-1.6,0-2.5-0.9-3.1-1.6c-0.5-0.6-0.8-0.8-1.4-0.8c-0.6,0-0.8,0.3-1.4,0.8
		c-0.6,0.7-1.5,1.6-3.1,1.6s-2.5-0.9-3.1-1.6c-0.5-0.6-0.8-0.8-1.4-0.8c-0.7,0-1.2-0.5-1.2-1.2s0.5-1.2,1.2-1.2
		c1.6,0,2.5,0.9,3.1,1.6c0.5,0.6,0.8,0.8,1.4,0.8c0.6,0,0.8-0.3,1.4-0.8c0.6-0.7,1.5-1.6,3.1-1.6c1.6,0,2.5,0.9,3.1,1.6
		c0.5,0.6,0.8,0.8,1.4,0.8s0.8-0.3,1.4-0.8c0.6-0.7,1.5-1.6,3.1-1.6c0.7,0,1.2,0.5,1.2,1.2s-0.5,1.2-1.2,1.2c-0.6,0-0.8,0.3-1.4,0.8
		C90.9,28.1,90.1,29,88.4,29z"/>
</g>
<g>
	<g>
		<path fill="#FFFFFF" d="M73.7,33.8c2.2,0,2.2,2.4,4.4,2.4c2.2,0,2.2-2.4,4.4-2.4c2.2,0,2.2,2.4,4.4,2.4"/>
	</g>
	<path fill="#2A5D86" d="M86.9,37.4c-1.6,0-2.5-0.9-3.1-1.6c-0.5-0.6-0.8-0.8-1.3-0.8c-0.6,0-0.8,0.2-1.3,0.8
		c-0.6,0.7-1.5,1.6-3.1,1.6s-2.5-0.9-3.1-1.6c-0.5-0.6-0.8-0.8-1.3-0.8c-0.7,0-1.2-0.5-1.2-1.2s0.5-1.2,1.2-1.2
		c1.6,0,2.5,0.9,3.1,1.6c0.5,0.6,0.8,0.8,1.3,0.8s0.8-0.2,1.3-0.8c0.6-0.7,1.5-1.6,3.1-1.6c1.6,0,2.5,0.9,3.1,1.6
		c0.5,0.6,0.8,0.8,1.3,0.8c0.7,0,1.2,0.5,1.2,1.2S87.6,37.4,86.9,37.4z"/>
</g>
<g>
	<g>
		<path fill="#FFFFFF" d="M91.7,81.8c-2.2,0-2.2-2.4-4.5-2.4c-2.2,0-2.2,2.4-4.5,2.4c-2.3,0-2.3-2.4-4.5-2.4c-2.3,0-2.3,2.4-4.5,2.4
			"/>
	</g>
	<path fill="#2A5D86" d="M91.7,83c-1.6,0-2.5-0.9-3.1-1.6c-0.5-0.6-0.8-0.8-1.4-0.8c-0.6,0-0.8,0.3-1.4,0.8
		c-0.6,0.7-1.5,1.6-3.1,1.6c-1.6,0-2.5-0.9-3.1-1.6c-0.5-0.6-0.8-0.8-1.4-0.8s-0.8,0.3-1.4,0.8c-0.6,0.7-1.5,1.6-3.1,1.6
		c-0.7,0-1.2-0.5-1.2-1.2s0.5-1.2,1.2-1.2c0.6,0,0.8-0.3,1.4-0.8c0.6-0.7,1.5-1.6,3.1-1.6c1.6,0,2.5,0.9,3.1,1.6
		c0.5,0.6,0.8,0.8,1.4,0.8c0.6,0,0.8-0.3,1.4-0.8c0.6-0.7,1.5-1.6,3.1-1.6s2.5,0.9,3.1,1.6c0.5,0.6,0.8,0.8,1.4,0.8
		c0.7,0,1.2,0.5,1.2,1.2S92.4,83,91.7,83z"/>
</g>
<g>
	<g>
		<path fill="#FFFFFF" d="M86.9,73.4c-2.2,0-2.2-2.4-4.4-2.4c-2.2,0-2.2,2.4-4.4,2.4c-2.2,0-2.2-2.4-4.4-2.4"/>
	</g>
	<path fill="#2A5D86" d="M86.9,74.6c-1.6,0-2.5-0.9-3.1-1.6c-0.5-0.6-0.8-0.8-1.3-0.8s-0.8,0.2-1.3,0.8c-0.6,0.7-1.5,1.6-3.1,1.6
		c-1.6,0-2.5-0.9-3.1-1.6c-0.5-0.6-0.8-0.8-1.3-0.8c-0.7,0-1.2-0.5-1.2-1.2s0.5-1.2,1.2-1.2c1.6,0,2.5,0.9,3.1,1.6
		c0.5,0.6,0.8,0.8,1.3,0.8c0.6,0,0.8-0.2,1.3-0.8c0.6-0.7,1.5-1.6,3.1-1.6s2.5,0.9,3.1,1.6c0.5,0.6,0.8,0.8,1.3,0.8
		c0.7,0,1.2,0.5,1.2,1.2S87.6,74.6,86.9,74.6z"/>
</g>
</svg>
