<svg version="1.0" xmlns="http://www.w3.org/2000/svg" xmlns:xlink="http://www.w3.org/1999/xlink" x="0px" y="0px"
	 viewBox="0 0 189.3 33" enable-background="new 0 0 189.3 33" >
	<g>
		<circle fill="#FFFFFF" cx="16.2" cy="16.6" r="14.9"/>
		<circle fill="#00609C" cx="23.3" cy="16.6" r="4.3"/>
		<path fill="#FFFFFF" d="M181.5,23.3h-14.9c-4,0-7.3-3.3-7.3-7.3v0c0-4,3.3-7.3,7.3-7.3h14.9c4,0,7.3,3.3,7.3,7.3v0
			C188.8,20,185.5,23.3,181.5,23.3z"/>
		<circle fill="#00609C" cx="181.7" cy="16" r="4.3"/>
		<path fill="#C1D42F" d="M133.8,11.4c-2.3-0.2-2.8,7.8-14,7.8c-13.1-0.1-12.9-13.1-23.6-13.8c-0.2,0-0.4-0.1-0.7-0.1
			c0,0-0.1,0-0.1,0c0,0-0.1,0-0.1,0c-0.2,0-0.4,0-0.7,0.1C83.8,6.1,84.1,19.1,70.9,19.1c-11.2,0-11.7-7.9-14-7.8
			c-2.8,0.2,1.9,19.5,25,16.2c6.7-1.7,10.9-5.7,13.4-9.3c2.5,3.6,6.7,7.6,13.4,9.3C131.9,30.9,136.6,11.6,133.8,11.4z"/>
	</g>
</svg>
