<?xml version="1.0" encoding="utf-8"?>
<!-- Generator: Adobe Illustrator 18.1.1, SVG Export Plug-In . SVG Version: 6.00 Build 0)  -->
<!DOCTYPE svg PUBLIC "-//W3C//DTD SVG 1.1//EN" "http://www.w3.org/Graphics/SVG/1.1/DTD/svg11.dtd">
<svg version="1.1" id="Layer_1" xmlns="http://www.w3.org/2000/svg" xmlns:xlink="http://www.w3.org/1999/xlink" x="0px" y="0px"
	 viewBox="0 0 100 100" enable-background="new 0 0 100 100" xml:space="preserve">
<g>
	<path fill="#2A5D86" d="M91.3,62c0.7-10.7-5.4-16.8-12-18c-3.3-0.6-4.7-0.7-6.4-0.8c-1.5-0.1-3.2-0.2-6.8-0.7
		C60.2,41.5,44.6,29.7,39,25.2c-0.4-0.3-0.9-0.4-1.4-0.4c-0.1,0-0.1,0-0.2,0c-1,0-1.8,0.8-1.8,1.8c0,6.9-5.6,12.5-12.5,12.5
		c-6,0-11.8-5-13.2-10.9V26c0-0.7-0.3-1.2-0.8-1.6c-0.3-0.3-0.8-0.6-1.3-0.6c-0.9,0-1.7,0.7-1.8,1.6C6,25.6,6,25.8,6,26v36v2v12
		c0,1,0.9,2.7,3.3,2.7c2.4,0,3.6-2,4.4-3.3c1.2-2.1,1.4-2.1,2.6,0c0.8,1.3,1.9,3.3,4.4,3.3s3.6-2,4.4-3.3c1.2-2.1,1.4-2.1,2.6,0
		c0.8,1.3,1.9,3.3,4.4,3.3c2.5,0,3.6-2,4.4-3.3c0.6-1,1-1.5,1.3-1.5c0.3,0,0.7,0.4,1.3,1.5c0.8,1.3,1.9,3.3,4.4,3.3
		c2.5,0,3.6-2,4.4-3.3c0.6-1.1,1-1.5,1.3-1.5c0.3,0,0.7,0.5,1.3,1.5c0.8,1.3,1.9,3.3,4.4,3.3s3.6-2,4.4-3.3c1.2-2.1,1.4-2.1,2.6,0
		c0.8,1.3,1.9,3.3,4.4,3.3s3.6-2,4.4-3.3c1.2-2.1,1.4-2.1,2.6,0c0.8,1.3,1.9,3.3,4.4,3.3c2.5,0,3.6-2,4.4-3.3c0.6-1,1-1.5,1.3-1.5
		c0.3,0,0.7,0.4,1.3,1.5c0.8,1.3,1.9,3.3,4.4,3.3c4,0,6.9-2.7,6.9-5.7V62H91.3z M10,36c3.2,4,8.1,6.7,13.2,6.7
		c7.8,0,14.3-5.6,15.8-13c1.4,1.1,3.4,2.6,5.6,4.3c0,0-0.1,0.1-0.1,0.1l-4.6,5.4c-0.6,0.8-0.6,1.9,0.2,2.5c0.3,0.3,0.8,0.4,1.2,0.4
		c0.5,0,1-0.2,1.4-0.6l4.6-5.4c0.1-0.1,0.2-0.3,0.2-0.4c2,1.4,4.1,2.8,6.2,4.2l-3.8,5.2c-0.6,0.8-0.4,1.9,0.4,2.5
		c0.3,0.2,0.7,0.3,1.1,0.3c0.6,0,1.1-0.3,1.5-0.7l4-5.5c2.1,1.2,4.2,2.3,6,3l-3.6,5c-0.6,0.8-0.4,1.9,0.4,2.5
		c0.3,0.2,0.7,0.3,1.1,0.3c0.6,0,1.1-0.3,1.5-0.7l4.2-5.8c0.1-0.1,0.1-0.2,0.2-0.3c3.3,0.5,4.9,0.6,6.4,0.7c1.6,0.1,2.8,0.2,5.9,0.8
		c4.7,0.9,9.7,5.2,9,14.5H10V36z M91.7,73.5c-1.1,2.4-3.2,1.2-3.8,0.1c-0.8-1.3-1.9-3.3-4.4-3.3c-2.5,0-3.6,2-4.4,3.3
		c-1.2,2.1-1.4,2.1-2.6,0c-0.8-1.3-1.9-3.3-4.4-3.3s-3.6,2-4.4,3.3c-1.2,2.1-1.4,2.1-2.6,0c-0.8-1.3-1.9-3.3-4.4-3.3s-3.6,2-4.4,3.3
		c-1.2,2.1-1.4,2.1-2.6,0c-0.7-1.2-1.8-3.1-4-3.2c-0.1,0-0.2,0-0.4,0c-0.1,0-0.2,0-0.4,0c-2.2,0.2-3.3,2-4,3.2
		c-0.6,1.1-1,1.5-1.3,1.5c-0.3,0-0.7-0.4-1.3-1.5c-0.8-1.3-1.9-3.3-4.4-3.3c-2.5,0-3.6,2-4.4,3.3c-1.2,2.1-1.4,2.1-2.6,0
		c-0.8-1.3-1.9-3.3-4.4-3.3s-3.6,2-4.4,3.3c-1.2,2.1-1.4,2.1-2.6,0c-0.8-1.3-1.9-3.3-4.4-3.3s-3.6,2-4.4,3.3c-0.3,0.4-0.5,0.8-0.6,1
		V66h82C92,66,92.8,71.1,91.7,73.5z"/>
</g>
<path fill="#C5CF32" d="M10,74.7c0.2-0.3,0.4-0.6,0.6-1c0.8-1.3,1.9-3.3,4.4-3.3s3.6,2,4.4,3.3c1.2,2.1,1.4,2.1,2.6,0
	c0.8-1.3,1.9-3.3,4.4-3.3s3.6,2,4.4,3.3c1.3,2.1,1.4,2.1,2.6,0c0.8-1.3,1.9-3.3,4.4-3.3c2.5,0,3.6,2,4.4,3.3c0.6,1.1,1,1.5,1.3,1.5
	c0.3,0,0.7-0.4,1.3-1.5c0.7-1.2,1.8-3.1,4-3.2c0.1,0,0.2,0,0.4,0c0.1,0,0.2,0,0.4,0c2.2,0.2,3.3,2,4,3.2c1.2,2.1,1.4,2.1,2.6,0
	c0.8-1.3,1.9-3.3,4.4-3.3s3.6,2,4.4,3.3c1.2,2.1,1.4,2.1,2.6,0c0.8-1.3,1.9-3.3,4.4-3.3s3.6,2,4.4,3.3c1.3,2.1,1.4,2.1,2.6,0
	c0.8-1.3,1.9-3.3,4.4-3.3c2.5,0,3.6,2,4.4,3.3c0.6,1.1,2.8,2.2,3.8-0.1S92,66,92,66H10V74.7z"/>
</svg>
