<?xml version="1.0" encoding="utf-8"?>
<!-- Generator: Adobe Illustrator 18.1.1, SVG Export Plug-In . SVG Version: 6.00 Build 0)  -->
<!DOCTYPE svg PUBLIC "-//W3C//DTD SVG 1.1//EN" "http://www.w3.org/Graphics/SVG/1.1/DTD/svg11.dtd">
<svg version="1.1" id="Layer_1" xmlns="http://www.w3.org/2000/svg" xmlns:xlink="http://www.w3.org/1999/xlink" x="0px" y="0px"
	 viewBox="0 0 100 100" enable-background="new 0 0 100 100" xml:space="preserve">
<g>
	<path fill="#2A5D86" d="M90.5,62c0.7-11-5.2-16.4-11.6-17.6c-3.2-0.6-4.6-0.8-6.1-0.9c-1.4-0.1-3.1-0.2-6.6-0.8
		c-5.7-0.9-20.9-12.3-26.2-16.6c-0.4-0.3-0.9-0.4-1.3-0.4c-0.1,0-0.1,0-0.2,0c-1,0-1.7,0.8-1.7,1.7c0,6.7-5.3,12.1-12,12.1
		C18.9,39.5,13,34.7,12,29v-2.2c0-0.6-0.4-1.2-0.9-1.5c-0.3-0.3-0.8-0.5-1.3-0.5c-0.9,0-1.6,0.7-1.7,1.5C8.1,26.4,8,26.6,8,26.8
		v34.8v1.9v11.6c0,0.9,0.9,2.7,3.2,2.7c2.4,0,3.5-1.9,4.3-3.2c1.2-2,1.3-2,2.5,0c0.7,1.3,1.9,3.2,4.3,3.2s3.5-1.9,4.3-3.2
		c1.2-2,1.3-2,2.5,0c0.8,1.3,1.9,3.2,4.2,3.2c2.4,0,3.5-1.9,4.3-3.2c0.6-1,0.9-1.5,1.3-1.5c0.3,0,0.6,0.4,1.3,1.5
		c0.7,1.3,1.9,3.2,4.3,3.2c2.4,0,3.5-1.9,4.3-3.2c0.6-1,0.9-1.5,1.3-1.5c0.3,0,0.7,0.5,1.3,1.5c0.8,1.3,1.9,3.2,4.3,3.2
		c2.4,0,3.5-1.9,4.3-3.2c1.2-2,1.3-2,2.5,0c0.7,1.3,1.9,3.2,4.3,3.2c2.4,0,3.5-1.9,4.3-3.2c1.2-2,1.3-2,2.5,0
		c0.7,1.3,1.9,3.2,4.2,3.2c2.4,0,3.5-1.9,4.3-3.2c0.6-1,0.9-1.5,1.3-1.5c0.3,0,0.6,0.4,1.3,1.5c0.7,1.3,1.9,3.2,4.3,3.2
		c3.8,0,6.6-2.6,6.6-5.6V62H90.5z M12,36.6c3,3.8,7.8,6.4,12.7,6.4c7.5,0,13.8-5.4,15.2-12.5c1.4,1.1,3.2,2.5,5.4,4.1
		c0,0-0.1,0.1-0.1,0.1l-4.5,5.2c-0.6,0.7-0.5,1.8,0.2,2.5c0.3,0.3,0.7,0.4,1.1,0.4c0.5,0,1-0.2,1.3-0.6l4.5-5.2
		c0.1-0.1,0.2-0.2,0.2-0.4c1.9,1.4,3.9,2.7,5.9,4l-3.7,5c-0.6,0.8-0.4,1.9,0.4,2.4c0.3,0.2,0.7,0.3,1,0.3c0.5,0,1.1-0.2,1.4-0.7
		l3.9-5.3c2.1,1.2,4.1,2.2,5.8,2.9l-3.5,4.8c-0.6,0.8-0.4,1.9,0.4,2.4c0.3,0.2,0.7,0.3,1,0.3c0.5,0,1.1-0.2,1.4-0.7l4.1-5.6
		c0.1-0.1,0.1-0.2,0.2-0.3c3.2,0.5,4.8,0.6,6.2,0.6c1.5,0.1,2.7,0.3,5.7,0.9C82.8,48.7,87.7,53,87,62H12V36.6z M90.8,73
		c-1,2.3-3.1,1-3.7,0c-0.7-1.3-1.9-3.2-4.3-3.2c-2.4,0-3.5,1.9-4.3,3.1c-1.2,2-1.3,2-2.5,0c-0.7-1.3-1.9-3.2-4.3-3.2
		s-3.5,1.9-4.2,3.2c-1.2,2-1.3,2-2.5,0c-0.7-1.3-1.9-3.2-4.3-3.2c-2.4,0-3.5,1.9-4.3,3.2c-1.2,2-1.3,2-2.5,0c-0.7-1.2-1.8-3-3.9-3.1
		c-0.1,0-0.2,0-0.4,0c-0.1,0-0.2,0-0.4,0c-2.1,0.2-3.2,1.9-3.9,3.1c-0.6,1-0.9,1.5-1.3,1.5c-0.3,0-0.6-0.4-1.3-1.5
		c-0.8-1.3-1.9-3.2-4.3-3.2c-2.4,0-3.5,1.9-4.3,3.2c-1.2,2-1.3,2-2.5,0c-0.8-1.3-1.9-3.2-4.3-3.2s-3.5,1.9-4.2,3.2
		c-1.2,2-1.3,2-2.5,0c-0.7-1.3-1.9-3.2-4.3-3.2s-3.4,1.9-4.2,3.2c-0.3,0.4-0.6,0.7-0.6,1V66h79.1C91.1,66,91.9,70.7,90.8,73z"/>
</g>
<path fill="#C5CF32" d="M12,73.9c0-0.2,0.3-0.6,0.6-1c0.8-1.3,1.8-3.2,4.2-3.2c2.4,0,3.5,1.9,4.2,3.2c1.2,2,1.3,2,2.5,0
	c0.7-1.3,1.9-3.2,4.2-3.2s3.5,1.9,4.2,3.2c1.2,2,1.3,2,2.5,0c0.8-1.3,1.9-3.2,4.3-3.2c2.4,0,3.5,1.9,4.3,3.2c0.6,1,0.9,1.5,1.3,1.5
	c0.3,0,0.6-0.4,1.3-1.5c0.7-1.2,1.8-3,3.9-3.1c0.1,0,0.2,0,0.4,0c0.1,0,0.2,0,0.4,0c2.1,0.2,3.2,1.9,3.9,3.1c1.2,2,1.3,2,2.5,0
	c0.7-1.3,1.9-3.2,4.3-3.2c2.4,0,3.5,1.9,4.3,3.2c1.2,2,1.3,2,2.5,0c0.8-1.3,1.9-3.2,4.2-3.2s3.5,1.9,4.3,3.2c1.2,2,1.3,2,2.5,0
	c0.8-1.3,1.9-3.2,4.3-3.2c2.4,0,3.5,1.9,4.3,3.2c0.6,1,2.7,2.4,3.7,0.1c1-2.3,0.3-7,0.3-7H12V73.9z"/>
</svg>
