<?xml version="1.0" encoding="utf-8"?>
<!-- Generator: Adobe Illustrator 19.0.0, SVG Export Plug-In . SVG Version: 6.00 Build 0)  -->
<!DOCTYPE svg PUBLIC "-//W3C//DTD SVG 1.0//EN" "http://www.w3.org/TR/2001/REC-SVG-20010904/DTD/svg10.dtd">
<svg version="1.0" id="Layer_1" xmlns="http://www.w3.org/2000/svg" xmlns:xlink="http://www.w3.org/1999/xlink" x="0px" y="0px"
	 viewBox="0 0 267 240" enable-background="new 0 0 267 240" xml:space="preserve">
<g>
	<path fill="#00609C" d="M205.9,71.1c0-2.2-0.8-2.2-2.9-2.2H67.6c-2.2,0-3.7,0-3.7,2.2v139.5c0,2.2,1.1,4,3.2,4l16.8,0v18
		c0,1.1,1.9,2.3,3,2.3h12.7c1.1,0,1.3-1.2,1.3-2.3v-17.9l69,0v18c0,1.1,1.4,2.3,2.5,2.3h12.7c1.1,0,1.8-1.2,1.8-2.3v-0.4v-17.3v0
		h15.7c2.4,0,3.3-1.5,3.3-3.9V71.1z"/>
	<rect x="69.7" y="73.3" fill="#44B4E2" width="131.5" height="135.7"/>
	<g>
		<path fill="#E3E3E3" d="M191.1,166.7H79.9c-0.9,0-1.7-0.7-1.7-1.7V88.6c0-0.9,0.7-1.7,1.7-1.7h111.2c0.9,0,1.7,0.7,1.7,1.7v76.5
			C192.8,166,192.1,166.7,191.1,166.7z"/>
	</g>
	<circle fill="#FFFFFF" cx="179.5" cy="189" r="8.1"/>
	<circle fill="#FFFFFF" cx="93.5" cy="189" r="8.1"/>
	<circle fill="#00609C" cx="179.3" cy="186.9" r="2.3"/>
	<circle fill="#00609C" cx="93.3" cy="186.9" r="2.3"/>
	<path fill="#C1D32F" d="M157.1,186.2c-1.2-0.1-1.5,4.2-7.6,4.2c-7.1,0-7-7.1-12.8-7.4c-0.1,0-0.2,0-0.4,0c0,0,0,0-0.1,0
		c0,0,0,0-0.1,0c-0.1,0-0.2,0-0.4,0c-5.8,0.4-5.7,7.4-12.8,7.4c-6.1,0-6.3-4.3-7.6-4.2c-1.5,0.1,1,10.5,13.5,8.7
		c3.6-0.9,5.9-3.1,7.2-5c1.4,1.9,3.6,4.1,7.2,5C156.1,196.7,158.6,186.3,157.1,186.2z"/>
	<rect x="83.9" y="92.8" fill="#F2F2F2" width="103" height="68.2"/>
	<path fill="#FFFFFF" d="M185.6,91.9c0,17-22.8,32-51,32s-51-15-51-32H185.6z"/>
	<g>
		<circle fill="#FFFFFF" cx="218.5" cy="201.8" r="18.2"/>
		
			<rect x="215.9" y="182.3" transform="matrix(0.4495 0.8933 -0.8933 0.4495 301.4884 -84.5351)" fill="#F2F2F2" width="6.8" height="40.1"/>
		
			<rect x="212.7" y="175.1" transform="matrix(0.4448 0.8956 -0.8956 0.4448 291.9286 -85.1023)" fill="#F2F2F2" width="3.9" height="35.6"/>
		<path fill="#C1D32F" d="M221.6,178.3c-12.3-1.9-24.7,7.2-26.6,19.5c-0.7,4.3-0.3,8.5,1.4,12.4l-9.5,4.3v7.3l12.5-6.5
			c3.6,4.8,9,8.2,15.1,9.2c12.3,1.9,24.8-7.2,26.7-19.5C243,192.6,234,180.2,221.6,178.3z M235.4,204.3c-1.5,9.6-10.4,16.1-20,14.7
			c-9.6-1.5-16.1-10.4-14.7-20c1.5-9.6,10.4-16.1,20-14.7C230.3,185.8,236.9,194.7,235.4,204.3z"/>
	</g>
</g>
<path fill="#E86E7D" d="M189.9,10.4C178.8-2.1,169.5,11,169,11.8c-0.5-0.8-9.8-13.4-20.9-0.8c-9.9,11.3,14,33.9,20.2,33.9h1.4
	C175.9,44.9,199.8,21.7,189.9,10.4z"/>
<path fill="#E86E7D" d="M265.7,109.6c-6.7-15.4-19.6-5.7-20.3-5.1c-0.2-0.9-5.2-15.7-19.6-7.2c-12.9,7.6,2.8,36.5,8.7,38.5l1.3,0.4
	C241.7,138.1,271.6,123.4,265.7,109.6z"/>
<path fill="#E86E7D" d="M83.6,26.7c-4.8-6.9-10.1-1.1-10.4-0.7c-0.2-0.4-4.1-6.9-10.4-1.3c-5.6,5,5,17.9,8,18.3l0.7,0.1
	C74.6,43.4,87.9,32.8,83.6,26.7z"/>
<path fill="#E86E7D" d="M40.5,73.9c-15.3-6.9-18.3,9-18.4,9.9c-0.8-0.5-14.4-8.1-19.3,7.9c-4.4,14.4,26.7,25.1,32.4,22.5l1.3-0.6
	C42,111.1,54.2,80.1,40.5,73.9z"/>
</svg>
