<?xml version="1.0" encoding="utf-8"?>
<!-- Generator: Adobe Illustrator 18.1.1, SVG Export Plug-In . SVG Version: 6.00 Build 0)  -->
<!DOCTYPE svg PUBLIC "-//W3C//DTD SVG 1.0//EN" "http://www.w3.org/TR/2001/REC-SVG-20010904/DTD/svg10.dtd">
<svg version="1.0" id="Layer_1" xmlns="http://www.w3.org/2000/svg" xmlns:xlink="http://www.w3.org/1999/xlink" x="0px" y="0px"
	 viewBox="0 0 107 24.3" enable-background="new 0 0 107 24.3" xml:space="preserve">
<g>
	<path fill="#2A5D86" d="M36.1,7.7h3.3c1.5,0,2.6,0.4,2.6,2.1c0,1-0.4,1.5-1.1,1.7c0.8,0.3,1.3,1,1.3,2c0,1.6-0.9,2.4-2.6,2.4h-3.5
		V7.7z M39.4,11c0.9,0,1.4-0.3,1.4-1.1c0-0.8-0.4-1.1-1.4-1.1h-2.1V11H39.4z M39.6,14.9c1,0,1.4-0.6,1.4-1.4c0-0.8-0.4-1.4-1.4-1.4
		h-2.3v2.8H39.6z"/>
	<path fill="#2A5D86" d="M47.3,15.3c-0.4,0.4-0.9,0.7-1.8,0.7c-1.3,0-1.7-0.7-1.7-2v-3.8h1.2v3.7c0,0.6,0.1,1.1,1,1.1
		c1,0,1.4-0.4,1.4-1.5v-3.3h1.2v5.8h-1.2V15.3z"/>
	<path fill="#2A5D86" d="M49.7,14.4l1.2-0.3c0.2,0.6,0.5,0.9,1.3,0.9c0.6,0,1.1-0.1,1.1-0.7c0-0.5-0.3-0.7-1.2-0.9
		c-1.2-0.3-2.1-0.6-2.1-1.7c0-0.9,0.6-1.7,2.2-1.7c1.2,0,2,0.5,2.3,1.3l-1.2,0.4c-0.1-0.5-0.4-0.7-1.1-0.7c-0.7,0-1,0.2-1,0.6
		c0,0.5,0.2,0.6,1.2,0.8c1.1,0.3,2.1,0.6,2.1,1.8c0,1.3-1.1,1.7-2.3,1.7C50.9,16,50,15.5,49.7,14.4z"/>
	<path fill="#2A5D86" d="M58.6,7.7h2.6c2.8,0,3.3,1.8,3.3,3.8v0.5c0,2.3-0.8,3.9-3.3,3.9h-2.7V7.7z M61.3,14.9
		c1.7,0,2.1-1.1,2.1-2.8v-0.5c0-2-0.5-2.8-2.1-2.8h-1.4v6.1H61.3z"/>
	<path fill="#2A5D86" d="M65.8,13.2v-0.3c0-1.7,0.7-2.8,2.5-2.8c1.7,0,2.3,1,2.3,2.6v0.7h-3.7c0,1,0.4,1.6,1.3,1.6
		c0.9,0,1.1-0.3,1.2-0.8l1.1,0.2c-0.2,0.8-0.9,1.6-2.3,1.6C66.4,16,65.8,14.9,65.8,13.2z M66.9,12.4h2.5c0-0.9-0.3-1.3-1.2-1.3
		C67.3,11.1,67,11.6,66.9,12.4z"/>
	<path fill="#2A5D86" d="M71.5,10.1h1.1V8.4h1.2v1.7h1.4v1.1h-1.4v2.6c0,0.8,0.1,1,0.9,1h0.5v1h-0.7c-1.5,0-1.8-0.5-1.8-1.9v-2.8
		h-1.1V10.1z"/>
	<path fill="#2A5D86" d="M76.1,13.2v-0.3c0-1.7,0.7-2.8,2.5-2.8c1.7,0,2.3,1,2.3,2.6v0.7h-3.7c0,1,0.4,1.6,1.3,1.6
		c0.9,0,1.1-0.3,1.2-0.8l1.1,0.2c-0.2,0.8-0.9,1.6-2.3,1.6C76.8,16,76.1,14.9,76.1,13.2z M77.3,12.4h2.5c0-0.9-0.3-1.3-1.2-1.3
		C77.7,11.1,77.4,11.6,77.3,12.4z"/>
	<path fill="#2A5D86" d="M82,13.2v-0.3c0-1.7,0.8-2.8,2.5-2.8c1.4,0,2.1,0.6,2.4,2l-1.2,0.2c-0.1-0.8-0.4-1.2-1.2-1.2
		c-1.1,0-1.3,0.7-1.3,1.8v0.2c0,1.1,0.3,1.8,1.3,1.8c0.8,0,1.1-0.4,1.2-1.1l1.2,0.2c-0.3,1.3-1.1,2-2.4,2C82.7,16,82,14.8,82,13.2z"
		/>
	<path fill="#2A5D86" d="M87.8,10.1h1.1V8.4H90v1.7h1.4v1.1H90v2.6c0,0.8,0.1,1,0.9,1h0.5v1h-0.7c-1.5,0-1.8-0.5-1.8-1.9v-2.8h-1.1
		V10.1z"/>
	<path fill="#2A5D86" d="M92.9,8h1.2v1.3h-1.2V8z M92.9,10.1h1.2v5.8h-1.2V10.1z"/>
	<path fill="#2A5D86" d="M98.4,16h-1.2l-1.9-5.8h1.2l0.4,1.3l0.9,2.9l0.9-2.9l0.4-1.3h1.2L98.4,16z"/>
	<path fill="#2A5D86" d="M101,13.2v-0.3c0-1.7,0.7-2.8,2.5-2.8c1.7,0,2.3,1,2.3,2.6v0.7h-3.7c0,1,0.4,1.6,1.3,1.6
		c0.9,0,1.1-0.3,1.2-0.8l1.1,0.2c-0.2,0.8-0.9,1.6-2.3,1.6C101.7,16,101,14.9,101,13.2z M102.2,12.4h2.5c0-0.9-0.3-1.3-1.2-1.3
		C102.6,11.1,102.3,11.6,102.2,12.4z"/>
</g>
<g>
	<path fill="#2A5D86" d="M26.6,11.5c-0.4,0-0.5,1.4-2.5,1.4c-2.3,0-2.3-2.3-4.2-2.4c0,0-0.1,0-0.1,0c0,0,0,0,0,0c0,0,0,0,0,0
		c0,0-0.1,0-0.1,0c-1.9,0.1-1.8,2.4-4.2,2.4c-2,0-2.1-1.4-2.5-1.4c-0.5,0,0.3,3.4,4.4,2.8c1.2-0.3,1.9-1,2.4-1.6
		c0.4,0.6,1.2,1.3,2.4,1.6C26.3,14.9,27.1,11.5,26.6,11.5z"/>
	<path fill="#C5CF32" d="M19.9,1.1c-6.1,0-11,4.9-11,11c0,1.6,0.4,3.1,1,4.5l-7.5,3.8c-0.6,0.3-0.8,1-0.5,1.5c0.2,0.4,0.6,0.6,1,0.6
		c0.2,0,0.4,0,0.5-0.1l7.7-3.9c2,2.7,5.2,4.5,8.9,4.5c6.1,0,11-4.9,11-11S25.9,1.1,19.9,1.1z M19.9,20.9c-4.8,0-8.7-3.9-8.7-8.7
		s3.9-8.7,8.7-8.7s8.7,3.9,8.7,8.7S24.7,20.9,19.9,20.9z"/>
</g>
</svg>
