<?xml version="1.0" encoding="utf-8"?>
<!-- Generator: Adobe Illustrator 18.1.1, SVG Export Plug-In . SVG Version: 6.00 Build 0)  -->
<!DOCTYPE svg PUBLIC "-//W3C//DTD SVG 1.1//EN" "http://www.w3.org/Graphics/SVG/1.1/DTD/svg11.dtd">
<svg version="1.1" id="Layer_1" xmlns="http://www.w3.org/2000/svg" xmlns:xlink="http://www.w3.org/1999/xlink" x="0px" y="0px"
	 viewBox="0 0 75 75" enable-background="new 0 0 75 75" xml:space="preserve">
<g>
</g>
<path fill="#C1D42F" d="M68.1,21.5H7.4c-2.6,0-4.7,2.1-4.7,4.7v21c0,2.6,2.1,4.7,4.7,4.7h60.8c2.6,0,4.7-2.1,4.7-4.7v-21
	C72.8,23.6,70.7,21.5,68.1,21.5z"/>
<g>
	<path fill="#FFFFFF" d="M31.3,32.6L29.4,33c-0.2,0-0.4-0.1-0.4-0.3l-0.1-1.1c0-0.2,0-0.3,0.1-0.4l3.2-2.7h1.5
		c0.2,0,0.4,0.2,0.4,0.4v14.2c0,0.2-0.2,0.4-0.4,0.4h-1.9c-0.2,0-0.4-0.2-0.4-0.4V32.6z"/>
	<path fill="#FFFFFF" d="M37.7,42.9l5.7-12h-5.8c-0.2,0-0.4-0.2-0.4-0.4V29c0-0.2,0.2-0.4,0.4-0.4h9.2c0.2,0,0.4,0.2,0.4,0.4v0.2
		L40.7,43c-0.2,0.4-0.4,0.6-0.8,0.6h-1.6c-0.3,0-0.6-0.1-0.6-0.4V42.9z"/>
</g>
</svg>
