<?xml version="1.0" encoding="utf-8"?>
<!-- Generator: Adobe Illustrator 18.1.1, SVG Export Plug-In . SVG Version: 6.00 Build 0)  -->
<!DOCTYPE svg PUBLIC "-//W3C//DTD SVG 1.1//EN" "http://www.w3.org/Graphics/SVG/1.1/DTD/svg11.dtd">
<svg version="1.1" id="Layer_1" xmlns="http://www.w3.org/2000/svg" xmlns:xlink="http://www.w3.org/1999/xlink" x="0px" y="0px"
	 viewBox="0 0 100 100" enable-background="new 0 0 100 100" xml:space="preserve">
<g>
	<path fill="#C5CF32" d="M24.3,73.8l36,0c0,0-2.2,11.6,1,13.2c3.2,1.6-33.9,1.5-33.9,1.5L23,78.9L24.3,73.8z"/>
	
		<line fill="#FFFFFF" stroke="#2A5D86" stroke-width="4" stroke-linecap="round" stroke-miterlimit="10" x1="31" y1="15" x2="31" y2="74"/>
	<g>
		<path fill="none" stroke="#2A5D86" stroke-width="3.6" stroke-linecap="round" stroke-miterlimit="10" d="M30.6,14.6
			c2.8,0,2.8,4.8,5.7,4.8c2.8,0,2.8-4.8,5.7-4.8c2.8,0,2.8,4.8,5.7,4.8c2.8,0,2.8-4.8,5.7-4.8c2.8,0,2.8,4.8,5.7,4.8
			c2.9,0,2.9-4.8,5.7-4.8c2.9,0,2.9,4.8,5.7,4.8s2.9-4.8,5.7-4.8"/>
	</g>
	<path fill="none" stroke="#2A5D86" stroke-width="4" stroke-miterlimit="10" d="M33,89h-1c-5,0-9-4.8-9-9.8c0-1.8,0.5-3.8,1.4-5.2
		l36-0.1c-0.9,1.4-1.4,3.6-1.4,5.4c0,5,4,9.7,9,9.7h0c4.3,0,8.3-3.7,8.3-7.8l0.5-66.6"/>
	<path fill="#FFFFFF" stroke="#000000" stroke-width="3.6" stroke-miterlimit="10" d="M22.2,74"/>
	<line fill="#FFFFFF" stroke="#2A5D86" stroke-width="4" stroke-miterlimit="10" x1="33" y1="89" x2="69" y2="89"/>
	<g>
		<path fill="#2A5D86" d="M51.4,50.1c-4.3-0.8-6.9-2.7-6.9-5.9c0-3.9,3.3-5.9,6.9-6.1v-0.7c0-0.5,0.4-1,0.9-1s0.9,0.5,0.9,1v0.7
			c2.2,0.1,6.9,1.5,6.9,4.3c0,1.1-0.8,1.8-1.8,1.8c-1.9,0-1.8-3.1-5-3.1v5.5c3.8,0.8,7.2,1.9,7.2,6.4c0,3.9-2.9,5.8-7.2,6.1v1.8
			c0,0.5-0.4,1-0.9,1s-0.9-0.5-0.9-1v-1.8c-4.9-0.1-7.3-3-7.3-5.3c0-1.2,0.7-1.8,1.8-1.8c3.2,0,0.7,4,5.5,4.2V50.1z M51.4,41.1
			c-2,0.1-3.2,1.2-3.2,2.5c0,1.4,1.1,2.3,3.2,2.7V41.1z M53.2,56.1c1.7-0.1,3.5-0.9,3.5-2.8c0-2-2-2.5-3.5-2.9V56.1z"/>
	</g>
</g>
</svg>
