<?xml version="1.0" encoding="utf-8"?>
<!-- Generator: Adobe Illustrator 18.1.1, SVG Export Plug-In . SVG Version: 6.00 Build 0)  -->
<!DOCTYPE svg PUBLIC "-//W3C//DTD SVG 1.1//EN" "http://www.w3.org/Graphics/SVG/1.1/DTD/svg11.dtd">
<svg version="1.1" id="Layer_1" xmlns="http://www.w3.org/2000/svg" xmlns:xlink="http://www.w3.org/1999/xlink" x="0px" y="0px"
	 viewBox="0 0 75 75" enable-background="new 0 0 75 75" xml:space="preserve">
<g>
</g>
<path fill="#42B4E4" d="M14,38.5c3.6,10.6,15.1,16.2,25.7,12.7c2.8-1,5.3-2.5,7.3-4.4l0,0l10.5,10.1c0.4,0.4,1.2,0.4,1.6-0.1
	l1.2-1.3c0.4-0.4,0.4-1.2-0.1-1.6c0,0-7.2-6.9-10.6-10.2l0.1-0.1c3.6-5.1,4.7-11.8,2.6-18.1C48.7,14.9,37.2,9.3,26.7,12.8
	C16.1,16.4,10.4,27.9,14,38.5z M48.3,26.9c2.8,8.4-1.7,17.5-10,20.3s-17.5-1.7-20.3-10c-2.8-8.4,1.7-17.5,10-20.3
	S45.5,18.5,48.3,26.9z"/>
</svg>
