<?xml version="1.0" encoding="utf-8"?>
<!-- Generator: Adobe Illustrator 18.1.1, SVG Export Plug-In . SVG Version: 6.00 Build 0)  -->
<!DOCTYPE svg PUBLIC "-//W3C//DTD SVG 1.1//EN" "http://www.w3.org/Graphics/SVG/1.1/DTD/svg11.dtd">
<svg version="1.1" id="Info" xmlns="http://www.w3.org/2000/svg" xmlns:xlink="http://www.w3.org/1999/xlink" x="0px" y="0px"
	 viewBox="0 0 200 175" enable-background="new 0 0 200 175" xml:space="preserve">
<path fill="#00609C" d="M158.6,5H23.9C21.7,5,20,6.2,20,8.4v138.8c0,2.2,1.7,4,3.9,4l17.1,0.1v17.6c0,1.2,0.7,2.1,1.9,2.1h12.2
	c1.2,0,1.9-1,1.9-2.1v-17.5l69,0.4v17.1c0,1.2,1,2.1,2.1,2.1h12.2c1.2,0,1.7-1,1.7-2.1v-17l16,0.1c2.4,0,5-2,5-4.4V8.4
	C163,6.2,160.7,5,158.6,5z"/>
<rect x="25.9" y="10.6" fill="#42B4E4" width="130.9" height="135.1"/>
<g>
	<path fill="#E3E3E3" d="M146.8,109.1H36.1c-0.9,0-1.7-0.7-1.7-1.7V39.1c0-0.9,0.7-1.7,1.7-1.7h110.7c0.9,0,1.7,0.7,1.7,1.7v68.4
		C148.4,108.4,147.7,109.1,146.8,109.1z"/>
	<path fill="#FFFFFF" d="M146.8,31.6H36.1c-0.9,0-1.7-0.7-1.7-1.7V18.1c0-0.9,0.7-1.7,1.7-1.7h110.7c0.9,0,1.7,0.7,1.7,1.7V30
		C148.4,30.9,147.7,31.6,146.8,31.6z"/>
	<g>
		<path fill="#00609C" d="M41.5,28.8v-8.7h5v1.2h-3.7v2.5h3.7V25h-3.7v2.5h3.7v1.2H41.5z M46.4,23.8v-2.5h1.2v2.5H46.4z M46.4,27.5
			V25h1.2v2.5H46.4z"/>
		<path fill="#00609C" d="M49.7,27.5v-7.5H51v7.5H49.7z M51,28.8v-1.2h3.7v1.2H51z M54.7,27.5v-7.5H56v7.5H54.7z"/>
		<path fill="#00609C" d="M58,23.8v-2.5h1.2v2.5H58z M58,28.8v-1.2h5v1.2H58z M59.2,21.3v-1.2h5v1.2H59.2z M59.2,25v-1.2H63V25H59.2
			z M63,27.5V25h1.2v2.5H63z"/>
		<path fill="#00609C" d="M71.7,28.8v-8.7h5v1.2h-3.7v6.2h3.7v1.2H71.7z M76.7,27.5v-6.2h1.2v6.2H76.7z"/>
		<path fill="#00609C" d="M80,28.8v-8.7h6.2v1.2h-5v2.5h3.7V25h-3.7v2.5h5v1.2H80z"/>
		<path fill="#00609C" d="M90.7,28.8v-7.5h-2.5v-1.2h6.2v1.2H92v7.5H90.7z"/>
		<path fill="#00609C" d="M96.5,28.8v-8.7h6.2v1.2h-5v2.5h3.7V25h-3.7v2.5h5v1.2H96.5z"/>
		<path fill="#00609C" d="M104.8,27.5v-6.2h1.2v6.2H104.8z M106,21.3v-1.2h3.7v1.2H106z M106,28.8v-1.2h3.7v1.2H106z M109.7,22.5
			v-1.2h1.2v1.2H109.7z M109.7,27.5v-1.2h1.2v1.2H109.7z"/>
		<path fill="#00609C" d="M115.5,28.8v-7.5H113v-1.2h6.2v1.2h-2.5v7.5H115.5z"/>
		<path fill="#00609C" d="M121.3,28.8v-1.2h1.2v-6.2h-1.2v-1.2h3.7v1.2h-1.2v6.2h1.2v1.2H121.3z"/>
		<path fill="#00609C" d="M127.1,25v-5h1.2v5H127.1z M128.3,27.5V25h1.2v2.5H128.3z M129.6,28.8v-1.2h1.2v1.2H129.6z M130.8,27.5V25
			h1.2v2.5H130.8z M132.1,25v-5h1.2v5H132.1z"/>
		<path fill="#00609C" d="M135.3,28.8v-8.7h6.2v1.2h-5v2.5h3.7V25h-3.7v2.5h5v1.2H135.3z"/>
	</g>
</g>
<circle fill="#FFFFFF" cx="49.6" cy="129.9" r="8"/>
<circle fill="#00609C" cx="53.5" cy="129.9" r="2.3"/>
<path fill="#FFFFFF" d="M138.6,133.5h-8c-2.2,0-3.9-1.8-3.9-3.9l0,0c0-2.2,1.8-3.9,3.9-3.9h8c2.2,0,3.9,1.8,3.9,3.9l0,0
	C142.5,131.8,140.8,133.5,138.6,133.5z"/>
<circle fill="#00609C" cx="138.7" cy="129.6" r="2.3"/>
<path fill="#C1D42F" d="M112.9,127.1c-1.2-0.1-1.5,4.2-7.5,4.2c-7.1,0-6.9-7-12.7-7.4c-0.1,0-0.2,0-0.4,0c0,0,0,0-0.1,0
	c0,0,0,0-0.1,0c-0.1,0-0.2,0-0.4,0c-5.8,0.4-5.7,7.4-12.7,7.4c-6,0-6.3-4.3-7.5-4.2c-1.5,0.1,1,10.5,13.5,8.7c3.6-0.9,5.9-3.1,7.2-5
	c1.3,1.9,3.6,4.1,7.2,5C111.9,137.6,114.4,127.2,112.9,127.1z"/>
<rect x="40" y="43.2" fill="#F1F1F1" width="102.6" height="60.2"/>
<path fill="#FFFFFF" d="M142.7,43c0,18-22.7,31.9-50.7,31.9S41.2,61,41.2,43H142.7z"/>
<g>
	<circle fill="#FFFFFF" cx="174" cy="138.5" r="18.1"/>
	
		<rect x="171.5" y="119" transform="matrix(0.4495 0.8933 -0.8933 0.4495 220.4009 -79.6724)" fill="#F1F1F1" width="6.8" height="39.9"/>
	
		<rect x="168.2" y="111.9" transform="matrix(0.4448 0.8956 -0.8956 0.4448 210.5312 -80.4305)" fill="#F1F1F1" width="3.9" height="35.5"/>
	<path fill="#C1D42F" d="M177.1,115.1c-12.3-1.9-24.6,7.2-26.5,19.4c-0.7,4.2-0.5,8.5,1.1,12.3l-9.7,4.3v7.2l12.7-6.5
		c3.6,4.7,9.1,8.2,15.1,9.1c12.3,1.9,24.8-7.2,26.7-19.4C198.3,129.3,189.4,117,177.1,115.1z M190.8,140.9
		c-1.5,9.5-10.4,16.1-19.9,14.6c-9.5-1.5-16.1-10.4-14.6-19.9c1.5-9.5,10.4-16.1,19.9-14.6C185.8,122.5,192.3,131.4,190.8,140.9z"/>
</g>
</svg>
