<?xml version="1.0" encoding="utf-8"?>
<!-- Generator: Adobe Illustrator 18.1.1, SVG Export Plug-In . SVG Version: 6.00 Build 0)  -->
<!DOCTYPE svg PUBLIC "-//W3C//DTD SVG 1.0//EN" "http://www.w3.org/TR/2001/REC-SVG-20010904/DTD/svg10.dtd">
<svg version="1.0" id="Layer_1" xmlns="http://www.w3.org/2000/svg" xmlns:xlink="http://www.w3.org/1999/xlink" x="0px" y="0px"
	 viewBox="0 0 101.3 34.5" enable-background="new 0 0 101.3 34.5" xml:space="preserve">
<g>
	<g>
		<path fill="#231F20" d="M99.9,28.9c0,2.4-1.9,4.3-4.3,4.3H5.9c-2.4,0-4.3-1.9-4.3-4.3V5.4c0-2.4,1.9-4.3,4.3-4.3h89.7
			c2.4,0,4.3,1.9,4.3,4.3V28.9z"/>
		<g id="PLAY_1_">
			<defs>
				<path id="SVGID_31_" d="M22.8,15.2l-4.4-2.6c0,0-8.1-4.7-8.6-4.9C9.4,7.5,8.9,7.6,8.9,8.2c0,1,0,10,0,10s0,9.7,0,10.2
					c0,0.4,0.3,0.6,0.8,0.4c0.4-0.2,8.8-5.1,8.8-5.1l4.4-2.6c0,0,3.8-2.2,4.3-2.5c0.5-0.3,0.5-0.7,0-0.9
					C26.7,17.5,22.8,15.2,22.8,15.2z"/>
			</defs>
			<clipPath id="SVGID_2_">
				<use xlink:href="#SVGID_31_"  overflow="visible"/>
			</clipPath>
			<linearGradient id="SVGID_3_" gradientUnits="userSpaceOnUse" x1="14.3842" y1="7.2777" x2="14.3842" y2="29.0704">
				<stop  offset="0" style="stop-color:#257DB0"/>
				<stop  offset="0.208" style="stop-color:#3C90B3"/>
				<stop  offset="0.7416" style="stop-color:#73BDB9"/>
				<stop  offset="1" style="stop-color:#89CEBC"/>
			</linearGradient>
			<polygon clip-path="url(#SVGID_2_)" fill="url(#SVGID_3_)" points="8.9,7.3 8.9,18.2 8.9,29.1 19.9,18.2 			"/>
			<linearGradient id="SVGID_5_" gradientUnits="userSpaceOnUse" x1="8.8896" y1="12.6863" x2="22.8304" y2="12.6863">
				<stop  offset="0" style="stop-color:#51BFAC"/>
				<stop  offset="1" style="stop-color:#DEE899"/>
			</linearGradient>
			<polygon clip-path="url(#SVGID_2_)" fill="url(#SVGID_5_)" points="22.8,15.2 18.4,12.7 8.9,7.2 8.9,7.3 19.9,18.2 			"/>
			<linearGradient id="SVGID_7_" gradientUnits="userSpaceOnUse" x1="15.8599" y1="18.1742" x2="15.8599" y2="29.1496">
				<stop  offset="0" style="stop-color:#EB403D"/>
				<stop  offset="0.1937" style="stop-color:#D64252"/>
				<stop  offset="0.7369" style="stop-color:#9F4887"/>
				<stop  offset="1" style="stop-color:#894A9C"/>
			</linearGradient>
			<polygon clip-path="url(#SVGID_2_)" fill="url(#SVGID_7_)" points="8.9,29.1 8.9,29.1 18.4,23.7 22.8,21.1 19.9,18.2 			"/>
			<linearGradient id="SVGID_8_" gradientUnits="userSpaceOnUse" x1="23.8892" y1="15.2474" x2="23.8892" y2="21.1006">
				<stop  offset="0" style="stop-color:#F48779"/>
				<stop  offset="0.6121" style="stop-color:#FAB076"/>
				<stop  offset="1" style="stop-color:#FDC674"/>
			</linearGradient>
			<polygon clip-path="url(#SVGID_2_)" fill="url(#SVGID_8_)" points="22.8,15.2 19.9,18.2 22.8,21.1 27.9,18.2 			"/>
		</g>
		<g>
			<path fill="#F9F9F9" d="M78.1,22.4c-0.4,0-0.8-0.1-1.1-0.2c-0.3-0.2-0.6-0.4-0.9-0.7H76c0,0.4,0.1,0.7,0.1,1.1v2.6h-1V16h0.8
				l0.1,0.9h0c0.2-0.3,0.5-0.6,0.9-0.8c0.3-0.2,0.7-0.2,1.1-0.2c0.8,0,1.5,0.3,1.9,0.9c0.5,0.6,0.7,1.4,0.7,2.4c0,1-0.2,1.8-0.7,2.4
				C79.5,22.1,78.9,22.4,78.1,22.4z M77.9,16.7c-0.6,0-1.1,0.2-1.4,0.5c-0.3,0.4-0.4,0.9-0.4,1.7v0.2c0,0.9,0.1,1.5,0.4,1.9
				c0.3,0.4,0.8,0.6,1.4,0.6c0.5,0,1-0.2,1.3-0.7c0.3-0.4,0.5-1.1,0.5-1.8c0-0.8-0.2-1.4-0.5-1.8C78.9,16.9,78.5,16.7,77.9,16.7z"/>
			<path fill="#F9F9F9" d="M82.9,22.3h-1v-9h1V22.3z"/>
			<path fill="#F9F9F9" d="M88.4,22.3l-0.2-0.9h0c-0.3,0.4-0.6,0.7-0.9,0.8c-0.3,0.1-0.7,0.2-1.2,0.2c-0.6,0-1.1-0.2-1.5-0.5
				c-0.4-0.3-0.5-0.8-0.5-1.4c0-1.3,1-2,3.1-2l1.1,0v-0.4c0-0.5-0.1-0.9-0.3-1.1c-0.2-0.2-0.6-0.4-1-0.4c-0.5,0-1.1,0.2-1.8,0.5
				l-0.3-0.7c0.3-0.2,0.7-0.3,1-0.4c0.4-0.1,0.7-0.1,1.1-0.1c0.8,0,1.3,0.2,1.7,0.5c0.4,0.3,0.5,0.9,0.5,1.6v4.3H88.4z M86.3,21.6
				c0.6,0,1.1-0.2,1.4-0.5c0.3-0.3,0.5-0.8,0.5-1.4v-0.6l-1,0c-0.8,0-1.3,0.1-1.7,0.4c-0.3,0.2-0.5,0.5-0.5,1c0,0.3,0.1,0.6,0.3,0.8
				C85.6,21.6,85.9,21.6,86.3,21.6z"/>
			<path fill="#F9F9F9" d="M89.7,16h1l1.4,3.6c0.3,0.8,0.5,1.4,0.6,1.8h0c0.1-0.2,0.2-0.5,0.3-1c0.2-0.5,0.7-1.9,1.6-4.4h1l-2.7,7.2
				c-0.3,0.7-0.6,1.2-0.9,1.5c-0.4,0.3-0.8,0.4-1.3,0.4c-0.3,0-0.6,0-0.9-0.1v-0.8c0.2,0,0.4,0.1,0.7,0.1c0.7,0,1.1-0.4,1.4-1.1
				l0.4-0.9L89.7,16z"/>
		</g>
		<g>
			<path fill="#F9F9F9" d="M60.3,16.6c0.3,0.3,0.9,0.8,0.9,1.8c0,1-0.6,1.4-1.1,1.9c-0.2,0.2-0.4,0.4-0.4,0.7c0,0.3,0.2,0.5,0.3,0.6
				l0.5,0.4c0.6,0.5,1.1,0.9,1.1,1.9c0,1.2-1.2,2.5-3.5,2.5c-1.9,0-2.8-0.9-2.8-1.9c0-0.5,0.2-1.2,1-1.6c0.8-0.5,1.9-0.6,2.5-0.6
				c-0.2-0.2-0.4-0.5-0.4-0.9c0-0.2,0.1-0.4,0.1-0.5c-0.1,0-0.3,0-0.4,0c-1.4,0-2.2-1-2.2-2.1c0-0.6,0.3-1.3,0.8-1.8
				c0.8-0.6,1.7-0.7,2.4-0.7H62l-0.8,0.5H60.3z M59.4,22.5c-0.1,0-0.2,0-0.3,0c-0.1,0-0.8,0-1.4,0.2c-0.3,0.1-1.1,0.4-1.1,1.4
				c0,0.9,0.9,1.6,2.3,1.6c1.3,0,1.9-0.6,1.9-1.4C60.8,23.5,60.4,23.2,59.4,22.5z M59.7,19.9c0.3-0.3,0.3-0.7,0.3-1
				c0-1-0.6-2.4-1.7-2.4c-0.3,0-0.7,0.2-0.9,0.4c-0.2,0.3-0.3,0.6-0.3,1c0,0.9,0.5,2.4,1.7,2.4C59.2,20.3,59.5,20.1,59.7,19.9z"/>
			<path fill="#F9F9F9" d="M51.9,22.2c-2.1,0-3.2-1.6-3.2-3.1c0-1.7,1.4-3.2,3.4-3.2c1.9,0,3.2,1.5,3.2,3.1
				C55.3,20.6,54.1,22.2,51.9,22.2z M53.6,21.2c0.3-0.4,0.4-1,0.4-1.5c0-1.2-0.6-3.4-2.2-3.4c-0.4,0-0.9,0.2-1.2,0.5
				c-0.5,0.5-0.6,1-0.6,1.6c0,1.3,0.6,3.5,2.3,3.5C52.8,21.8,53.3,21.6,53.6,21.2z"/>
			<path fill="#F9F9F9" d="M44.8,22.2c-2.1,0-3.2-1.6-3.2-3.1c0-1.7,1.4-3.2,3.4-3.2c1.9,0,3.2,1.5,3.2,3.1
				C48.1,20.6,46.9,22.2,44.8,22.2z M46.4,21.2c0.3-0.4,0.4-1,0.4-1.5c0-1.2-0.6-3.4-2.2-3.4c-0.4,0-0.9,0.2-1.2,0.5
				c-0.5,0.5-0.6,1-0.6,1.6c0,1.3,0.6,3.5,2.3,3.5C45.6,21.8,46.1,21.6,46.4,21.2z"/>
			<path fill="#F9F9F9" d="M40.5,22l-1.9,0.4c-0.8,0.1-1.5,0.2-2.2,0.2c-3.7,0-5.1-2.7-5.1-4.8c0-2.6,2-5,5.4-5c0.7,0,1.4,0.1,2,0.3
				c1,0.3,1.5,0.6,1.8,0.8l-1.1,1.1L39,15.2l0.3-0.5c-0.5-0.4-1.3-1.3-2.8-1.3c-2.1,0-3.7,1.6-3.7,3.9c0,2.5,1.8,4.9,4.7,4.9
				c0.9,0,1.3-0.2,1.7-0.3v-2.1l-2,0.1l1.1-0.6H41l-0.3,0.3c-0.1,0.1-0.1,0.1-0.1,0.2c0,0.1,0,0.5,0,0.6V22z"/>
			<path fill="#F9F9F9" d="M64.5,21.7c-0.4,0-0.5-0.1-0.5-0.6v-0.1v-7.4c0,0,0-0.1,0-0.1c0.1-0.5,0.2-0.5,0.6-0.8h-1.9l-1,0.5h1v0
				l0,0v7.8v0.4c0,0.3-0.1,0.3-0.4,0.7h2.4l0.5-0.3C65,21.7,64.7,21.7,64.5,21.7z"/>
			<path fill="#F9F9F9" d="M69.9,21.8c-0.1,0.1-0.3,0.2-0.4,0.2c-0.4,0.2-0.9,0.3-1.3,0.3c-0.4,0-1.1,0-1.8-0.5
				c-0.9-0.7-1.3-1.8-1.3-2.8c0-2,1.7-3.1,3-3.1c0.5,0,1,0.1,1.4,0.4c0.7,0.4,0.8,1,0.9,1.3l-3.1,1.3l-1,0.1
				c0.3,1.7,1.5,2.7,2.7,2.7c0.7,0,1.2-0.2,1.6-0.5L69.9,21.8z M68.7,17.8c0.3-0.1,0.4-0.2,0.4-0.4c0-0.5-0.6-1.1-1.3-1.1
				c-0.5,0-1.5,0.4-1.5,1.8c0,0.2,0,0.5,0,0.7L68.7,17.8z"/>
			<g>
				<path fill="#F9F9F9" d="M71.2,16v0.9h-0.1V16h-0.3v-0.1h0.7V16H71.2z"/>
				<path fill="#F9F9F9" d="M72.4,16.9V16h0l-0.3,0.9H72L71.7,16h0v0.9h-0.1v-1h0.2l0.2,0.8h0l0.2-0.8h0.2L72.4,16.9L72.4,16.9z"/>
			</g>
		</g>
		<g>
			<path fill="#F9F9F9" d="M34,10.3h-0.7c0-0.1-0.1-0.3-0.2-0.8h-1C32.1,10,32,10.2,32,10.3h-0.6c0-0.1,0.2-0.5,0.5-1.3
				c0.3-0.8,0.5-1.3,0.5-1.4h0.8c0,0.1,0.1,0.5,0.4,1.3C33.9,9.8,34,10.2,34,10.3z M33.1,9.1c-0.2-0.7-0.4-1.1-0.4-1.2h0
				c0,0.1-0.1,0.4-0.4,1.2H33.1z"/>
			<path fill="#F9F9F9" d="M36.7,10.3h-0.5c0-0.1-0.2-0.4-0.6-0.9c-0.4-0.6-0.6-1-0.7-1.2h0c0,0.3,0.1,0.6,0.1,0.8
				c0,0.3,0,0.8,0,1.2h-0.5c0-0.4,0-0.9,0-1.4c0-0.5,0-0.9,0-1.3h0.6c0,0.1,0.2,0.4,0.5,0.9c0.4,0.5,0.6,0.9,0.6,1.1h0
				c0-0.3,0-0.6,0-0.8c0-0.4,0-0.8,0-1.1h0.5c0,0.3,0,0.8,0,1.3C36.6,9.4,36.7,9.9,36.7,10.3z"/>
			<path fill="#F9F9F9" d="M39.7,8.9c0,0.4-0.1,0.7-0.4,1c-0.3,0.3-0.6,0.4-1.1,0.4c-0.2,0-0.5,0-0.8,0c0-0.4,0-0.9,0-1.4
				c0-0.5,0-0.9,0-1.3h0.4c0.1,0,0.1,0,0.3,0c0.1,0,0.2,0,0.2,0c0.5,0,0.9,0.1,1.1,0.4C39.6,8.2,39.7,8.5,39.7,8.9z M39.1,9
				c0-0.3-0.1-0.5-0.2-0.7C38.7,8.1,38.5,8,38.2,8c-0.1,0-0.1,0-0.2,0c0,0.3,0,0.6,0,0.9c0,0.3,0,0.7,0,1c0.1,0,0.2,0,0.3,0
				c0.3,0,0.5-0.1,0.7-0.3C39,9.5,39.1,9.2,39.1,9z"/>
			<path fill="#F9F9F9" d="M42.4,10.3h-0.6c-0.2-0.5-0.3-0.8-0.4-0.9c-0.1-0.1-0.2-0.2-0.4-0.2c-0.1,0-0.2,0-0.2,0
				c0,0.4,0,0.7,0,1.1h-0.6c0-0.4,0-0.9,0-1.4c0-0.5,0-0.9,0-1.3h0.4c0,0,0.1,0,0.3,0c0.1,0,0.3,0,0.4,0c0.6,0,0.9,0.2,0.9,0.6
				c0,0.3-0.2,0.6-0.5,0.7v0c0.1,0,0.3,0.1,0.4,0.3C42.1,9.5,42.2,9.8,42.4,10.3z M41.7,8.4c0-0.3-0.2-0.4-0.5-0.4
				c-0.1,0-0.2,0-0.3,0c0,0.2,0,0.5,0,0.8c0.1,0,0.1,0,0.2,0C41.4,8.9,41.7,8.7,41.7,8.4z"/>
			<path fill="#F9F9F9" d="M45.4,8.9c0,0.4-0.1,0.8-0.4,1.1c-0.3,0.3-0.6,0.4-1,0.4c-0.4,0-0.7-0.1-0.9-0.4c-0.2-0.3-0.4-0.6-0.4-1
				c0-0.4,0.1-0.8,0.4-1.1c0.3-0.3,0.6-0.4,1-0.4c0.4,0,0.7,0.1,0.9,0.4C45.3,8.2,45.4,8.5,45.4,8.9z M44.8,9c0-0.3-0.1-0.5-0.2-0.7
				C44.5,8.1,44.3,8,44.1,8c-0.2,0-0.4,0.1-0.5,0.3c-0.1,0.2-0.2,0.4-0.2,0.7c0,0.3,0.1,0.5,0.2,0.7c0.1,0.2,0.3,0.3,0.5,0.3
				c0.2,0,0.4-0.1,0.5-0.3C44.7,9.5,44.8,9.3,44.8,9z"/>
			<path fill="#F9F9F9" d="M46.6,10.3H46c0-0.4,0-0.9,0-1.4c0-0.5,0-0.9,0-1.3h0.6c0,0.3,0,0.8,0,1.3C46.5,9.4,46.5,9.9,46.6,10.3z"
				/>
			<path fill="#F9F9F9" d="M49.6,8.9c0,0.4-0.1,0.7-0.4,1c-0.3,0.3-0.6,0.4-1.1,0.4c-0.2,0-0.5,0-0.8,0c0-0.4,0-0.9,0-1.4
				c0-0.5,0-0.9,0-1.3h0.4c0.1,0,0.1,0,0.3,0c0.1,0,0.2,0,0.2,0c0.5,0,0.9,0.1,1.1,0.4C49.4,8.2,49.6,8.5,49.6,8.9z M49,9
				c0-0.3-0.1-0.5-0.2-0.7C48.6,8.1,48.4,8,48.1,8c-0.1,0-0.1,0-0.2,0c0,0.3,0,0.6,0,0.9c0,0.3,0,0.7,0,1c0.1,0,0.2,0,0.3,0
				c0.3,0,0.5-0.1,0.7-0.3C48.9,9.5,49,9.2,49,9z"/>
			<path fill="#F9F9F9" d="M53.5,10.3h-0.7c0-0.1-0.1-0.3-0.2-0.8h-1c-0.1,0.4-0.2,0.7-0.2,0.8h-0.6c0-0.1,0.2-0.5,0.5-1.3
				c0.3-0.8,0.5-1.3,0.5-1.4h0.8c0,0.1,0.1,0.5,0.4,1.3C53.4,9.8,53.5,10.2,53.5,10.3z M52.6,9.1c-0.2-0.7-0.4-1.1-0.4-1.2h0
				c0,0.1-0.1,0.4-0.4,1.2H52.6z"/>
			<path fill="#F9F9F9" d="M55.9,8.3c0,0.3-0.1,0.6-0.4,0.7c-0.2,0.2-0.5,0.2-0.9,0.2c-0.1,0-0.1,0-0.1,0c0,0.3,0,0.6,0,1H54
				c0-0.4,0-0.9,0-1.4c0-0.5,0-0.9,0-1.3h0.4c0.1,0,0.1,0,0.3,0c0.1,0,0.3,0,0.4,0c0.3,0,0.5,0.1,0.7,0.2S55.9,8.1,55.9,8.3z
				 M55.4,8.4c0-0.3-0.2-0.4-0.6-0.4c-0.1,0-0.2,0-0.3,0c0,0.3,0,0.6,0,0.9c0,0,0.1,0,0.1,0C55.2,8.9,55.4,8.8,55.4,8.4z"/>
			<path fill="#F9F9F9" d="M58.4,8.3c0,0.3-0.1,0.6-0.4,0.7c-0.2,0.2-0.5,0.2-0.9,0.2c-0.1,0-0.1,0-0.1,0c0,0.3,0,0.6,0,1h-0.6
				c0-0.4,0-0.9,0-1.4c0-0.5,0-0.9,0-1.3h0.4c0.1,0,0.1,0,0.3,0c0.1,0,0.3,0,0.4,0c0.3,0,0.5,0.1,0.7,0.2
				C58.3,7.9,58.4,8.1,58.4,8.3z M57.9,8.4c0-0.3-0.2-0.4-0.6-0.4c-0.1,0-0.2,0-0.3,0c0,0.3,0,0.6,0,0.9c0,0,0.1,0,0.1,0
				C57.6,8.9,57.9,8.8,57.9,8.4z"/>
			<path fill="#F9F9F9" d="M62.5,8.9c0,0.4-0.1,0.8-0.4,1.1c-0.3,0.3-0.6,0.4-1,0.4c-0.4,0-0.7-0.1-0.9-0.4c-0.2-0.3-0.4-0.6-0.4-1
				c0-0.4,0.1-0.8,0.4-1.1c0.3-0.3,0.6-0.4,1-0.4c0.4,0,0.7,0.1,0.9,0.4C62.3,8.2,62.5,8.5,62.5,8.9z M61.9,9c0-0.3-0.1-0.5-0.2-0.7
				C61.5,8.1,61.3,8,61.1,8c-0.2,0-0.4,0.1-0.5,0.3c-0.1,0.2-0.2,0.4-0.2,0.7c0,0.3,0.1,0.5,0.2,0.7c0.1,0.2,0.3,0.3,0.5,0.3
				c0.2,0,0.4-0.1,0.5-0.3C61.8,9.5,61.9,9.3,61.9,9z"/>
			<path fill="#F9F9F9" d="M65.3,10.3h-0.5c0-0.1-0.2-0.4-0.6-0.9c-0.4-0.6-0.6-1-0.7-1.2h0c0,0.3,0.1,0.6,0.1,0.8
				c0,0.3,0,0.8,0,1.2H63c0-0.4,0-0.9,0-1.4c0-0.5,0-0.9,0-1.3h0.6c0,0.1,0.2,0.4,0.5,0.9c0.4,0.5,0.6,0.9,0.6,1.1h0
				c0-0.3,0-0.6,0-0.8c0-0.4,0-0.8,0-1.1h0.5c0,0.3,0,0.8,0,1.3C65.2,9.4,65.2,9.9,65.3,10.3z"/>
		</g>
	</g>
</g>
</svg>
