<?xml version="1.0" encoding="utf-8"?>
<!-- Generator: Adobe Illustrator 18.1.1, SVG Export Plug-In . SVG Version: 6.00 Build 0)  -->
<!DOCTYPE svg PUBLIC "-//W3C//DTD SVG 1.0//EN" "http://www.w3.org/TR/2001/REC-SVG-20010904/DTD/svg10.dtd">
<svg version="1.0" id="Layer_1" xmlns="http://www.w3.org/2000/svg" xmlns:xlink="http://www.w3.org/1999/xlink" x="0px" y="0px"
	 viewBox="0 0 36.7 34.5" enable-background="new 0 0 36.7 34.5" xml:space="preserve">
<path fill="#FFFFFF" d="M34.4,8.2c-1.2,0.5-2.4,0.9-3.7,1c1.3-0.8,2.4-2.1,2.9-3.6c-1.3,0.7-2.6,1.3-4.1,1.6
	c-1.2-1.3-2.9-2.1-4.7-2.1c-3.6,0-6.5,2.9-6.5,6.5c0,0.5,0.1,1,0.2,1.5c-5.4-0.3-10.2-2.9-13.4-6.8C4.4,7.3,4,8.4,4,9.6
	c0,2.3,1.1,4.2,2.9,5.4c-1.1,0-2.1-0.3-2.9-0.8c0,0,0,0.1,0,0.1c0,3.2,2.2,5.8,5.2,6.4c-0.5,0.1-1.1,0.2-1.7,0.2
	c-0.4,0-0.8,0-1.2-0.1c0.8,2.6,3.2,4.5,6.1,4.5c-2.2,1.7-5,2.8-8.1,2.8c-0.5,0-1,0-1.6-0.1c2.9,1.8,6.3,2.9,10,2.9
	c12,0,18.5-9.9,18.5-18.5c0-0.3,0-0.6,0-0.8C32.4,10.6,33.5,9.5,34.4,8.2z"/>
</svg>
