<?xml version="1.0" encoding="utf-8"?>
<!-- Generator: Adobe Illustrator 18.1.1, SVG Export Plug-In . SVG Version: 6.00 Build 0)  -->
<!DOCTYPE svg PUBLIC "-//W3C//DTD SVG 1.0//EN" "http://www.w3.org/TR/2001/REC-SVG-20010904/DTD/svg10.dtd">
<svg version="1.0" id="Layer_1" xmlns="http://www.w3.org/2000/svg" xmlns:xlink="http://www.w3.org/1999/xlink" x="0px" y="0px"
	 viewBox="0 0 101.3 34.5" enable-background="new 0 0 101.3 34.5" xml:space="preserve">
<g>
	<g>
		<g>
			<path fill="#FFFFFF" d="M99.7,28.9c0,2.4-1.9,4.3-4.3,4.3H5.7c-2.4,0-4.3-1.9-4.3-4.3V5.4c0-2.4,1.9-4.3,4.3-4.3h89.7
				c2.4,0,4.3,1.9,4.3,4.3V28.9z"/>
		</g>
	</g>
	<g>
		<path fill="#C1D42F" d="M22.1,16.5c-0.3,0-0.4,1.1-2,1.1c-1.9,0-1.9-1.9-3.4-2c0,0-0.1,0-0.1,0c0,0,0,0,0,0c0,0,0,0,0,0
			c0,0-0.1,0-0.1,0c-1.6,0.1-1.5,2-3.4,2c-1.6,0-1.7-1.1-2-1.1c-0.4,0,0.3,2.8,3.6,2.3c1-0.2,1.6-0.8,1.9-1.4c0.4,0.5,1,1.1,1.9,1.4
			C21.9,19.4,22.6,16.6,22.1,16.5z"/>
		<path fill="#00609C" d="M16.5,26.2c5,0,9.1-4.1,9.1-9.1S21.6,8,16.5,8s-9.1,4.1-9.1,9.1C7.5,22.2,11.3,26.2,16.5,26.2z M16.5,24.3
			c-4,0-7.2-3.2-7.2-7.2s3.2-7.2,7.2-7.2s7.2,3.2,7.2,7.2S20.5,24.3,16.5,24.3z"/>
	</g>
	<text transform="matrix(1 0 0 1 31.0996 12.981)" fill="#00609C" font-family="'BrandonGrotesque-Medium'" font-size="7.5748">For web browsers</text>
	<text transform="matrix(1 0 0 1 31.0996 26.1147)" fill="#00609C" font-family="'BrandonGrotesque-Bold'" font-size="13.5422">Web App</text>
</g>
</svg>
