<?xml version="1.0" encoding="utf-8"?>
<!-- Generator: Adobe Illustrator 18.1.1, SVG Export Plug-In . SVG Version: 6.00 Build 0)  -->
<!DOCTYPE svg PUBLIC "-//W3C//DTD SVG 1.0//EN" "http://www.w3.org/TR/2001/REC-SVG-20010904/DTD/svg10.dtd">
<svg version="1.0" id="Layer_1" xmlns="http://www.w3.org/2000/svg" xmlns:xlink="http://www.w3.org/1999/xlink" x="0px" y="0px"
	 viewBox="0 0 512 512" enable-background="new 0 0 512 512" xml:space="preserve">
<g>
	<g>
		<g>
			<path fill="#FFFFFF" d="M503.9,314.9c0,12.1-9.6,21.7-21.7,21.7H28.8c-12.1,0-21.7-9.6-21.7-21.7V196.1
				c0-12.1,9.6-21.7,21.7-21.7h453.4c12.1,0,21.7,9.6,21.7,21.7V314.9z"/>
		</g>
	</g>
	<g>
		<path fill="#C1D42F" d="M111.7,252.2c-1.5,0-2,5.6-10.1,5.6c-9.6,0-9.6-9.6-17.2-10.1h-0.5l0,0l0,0h-0.5
			c-8.1,0.5-7.6,10.1-17.2,10.1c-8.1,0-8.6-5.6-10.1-5.6c-2,0,1.5,14.2,18.2,11.6c5.1-1,8.1-4,9.6-7.1c2,2.5,5.1,5.6,9.6,7.1
			C110.7,266.9,114.2,252.7,111.7,252.2z"/>
		<path fill="#00609C" d="M83.4,301.2c25.3,0,46-20.7,46-46s-20.2-46-46-46s-46,20.7-46,46C37.9,281,57.1,301.2,83.4,301.2z
			 M83.4,291.6c-20.2,0-36.4-16.2-36.4-36.4s16.2-36.4,36.4-36.4s36.4,16.2,36.4,36.4S103.6,291.6,83.4,291.6z"/>
	</g>
	<g enable-background="new    ">
		<path fill="#00609C" d="M160.9,208.4c0-0.4,0.3-0.7,0.7-0.7h15.3c0.4,0,0.7,0.3,0.7,0.7v2.1c0,0.4-0.3,0.7-0.7,0.7h-12.1v8.8h10.2
			c0.4,0,0.7,0.3,0.7,0.7v2.1c0,0.4-0.3,0.7-0.7,0.7h-10.2v10.1c0,0.4-0.3,0.7-0.7,0.7h-2.5c-0.4,0-0.7-0.3-0.7-0.7V208.4z"/>
		<path fill="#00609C" d="M186.6,218.7c4.3,0,7.7,3.7,7.7,8c0,4.4-3.4,8.1-7.7,8.1c-4.3,0-7.7-3.7-7.7-8.1
			C178.9,222.4,182.3,218.7,186.6,218.7z M186.6,231.5c2.4,0,4.3-2.1,4.3-4.8c0-2.6-1.9-4.7-4.3-4.7c-2.4,0-4.3,2.1-4.3,4.7
			C182.3,229.4,184.2,231.5,186.6,231.5z"/>
		<path fill="#00609C" d="M198.2,219.8c0-0.4,0.3-0.7,0.7-0.7h1.1c0.3,0,0.6,0.2,0.7,0.5l0.4,1.3c0.3-0.4,1.7-2.2,4.5-2.2
			c1.5,0,3.2,0.4,2.8,1.4l-0.9,1.9c-0.2,0.4-0.6,0.5-0.9,0.3c-0.2-0.1-0.8-0.3-1.3-0.3c-2.2,0-3.3,1.6-3.4,1.9v9.7
			c0,0.7-0.4,0.7-1,0.7h-1.8c-0.4,0-0.7-0.3-0.7-0.7V219.8z"/>
		<path fill="#00609C" d="M218,220c-0.2-0.5,0-0.9,0.5-0.9h2.1c0.3,0,0.6,0.2,0.7,0.5l2.6,8.5h0l4.1-8.9c0.1-0.2,0.3-0.4,0.7-0.4
			h0.2c0.3,0,0.6,0.2,0.7,0.4l4.1,9h0l2.5-8.5c0.2-0.5,0.8-0.5,1.2-0.5h1.5c0.5,0,0.8,0.4,0.6,0.9l-4.5,14.4
			c-0.1,0.2-0.3,0.4-0.7,0.4h-0.2c-0.3,0-0.6-0.2-0.7-0.3l-4.7-10.2h0l-4.7,10.2c-0.1,0.2-0.3,0.3-0.6,0.3h-0.2
			c-0.3,0-0.6-0.2-0.7-0.4L218,220z"/>
		<path fill="#00609C" d="M249.5,218.7c4,0,7,3,7,7.1c0,0.3,0,0.8-0.1,1c0,0.4-0.3,0.7-0.7,0.7h-10.4c0.1,2.1,1.9,4.1,4.4,4.1
			c1.4,0,2.6-0.6,3.4-1.1c0.5-0.3,0.7-0.4,1,0l1.1,1.5c0.3,0.3,0.4,0.6-0.1,1c-1.1,1-3.1,1.9-5.7,1.9c-4.6,0-7.7-3.6-7.7-8
			C241.8,222.4,244.9,218.7,249.5,218.7z M253,225.1c-0.1-1.8-1.6-3.4-3.5-3.4c-2.1,0-3.7,1.5-3.9,3.4H253z"/>
		<path fill="#00609C" d="M260.2,208.4c0-0.4,0.3-0.7,0.7-0.7h2.2c0.4,0,0.7,0.3,0.7,0.7v11.2c0.3-0.1,1.7-0.8,3.7-0.8
			c4.2,0,7.5,3.6,7.5,8c0,4.4-3.1,8-7.2,8c-3,0-4.9-2.1-4.9-2.1l-0.3,1.1c-0.1,0.4-0.3,0.7-0.7,0.7h-1.1c-0.4,0-0.7-0.3-0.7-0.7
			V208.4z M267.5,231.5c2.5,0,4.1-2.2,4.1-4.7c0-2.6-1.8-4.7-4.4-4.7c-2,0-3.3,0.9-3.3,0.9v6.3C264,229.6,265.2,231.5,267.5,231.5z"
			/>
		<path fill="#00609C" d="M287.4,208.4c0-0.4,0.3-0.7,0.7-0.7h2.2c0.4,0,0.7,0.3,0.7,0.7v11.2c0.3-0.1,1.7-0.8,3.7-0.8
			c4.2,0,7.5,3.6,7.5,8c0,4.4-3.1,8-7.2,8c-3,0-4.9-2.1-4.9-2.1l-0.3,1.1c-0.1,0.4-0.3,0.7-0.7,0.7h-1.1c-0.4,0-0.7-0.3-0.7-0.7
			V208.4z M294.7,231.5c2.5,0,4.1-2.2,4.1-4.7c0-2.6-1.8-4.7-4.4-4.7c-2,0-3.3,0.9-3.3,0.9v6.3C291.2,229.6,292.3,231.5,294.7,231.5
			z"/>
		<path fill="#00609C" d="M306.2,219.8c0-0.4,0.3-0.7,0.7-0.7h1.1c0.3,0,0.6,0.2,0.7,0.5l0.4,1.3c0.3-0.4,1.7-2.2,4.5-2.2
			c1.5,0,3.2,0.4,2.8,1.4l-0.9,1.9c-0.2,0.4-0.6,0.5-0.9,0.3c-0.2-0.1-0.8-0.3-1.3-0.3c-2.2,0-3.3,1.6-3.4,1.9v9.7
			c0,0.7-0.4,0.7-1,0.7h-1.8c-0.4,0-0.7-0.3-0.7-0.7V219.8z"/>
		<path fill="#00609C" d="M325.5,218.7c4.3,0,7.7,3.7,7.7,8c0,4.4-3.4,8.1-7.7,8.1s-7.7-3.7-7.7-8.1
			C317.8,222.4,321.2,218.7,325.5,218.7z M325.5,231.5c2.4,0,4.3-2.1,4.3-4.8c0-2.6-1.9-4.7-4.3-4.7s-4.3,2.1-4.3,4.7
			C321.2,229.4,323.1,231.5,325.5,231.5z"/>
		<path fill="#00609C" d="M335.6,220c-0.2-0.5,0-0.9,0.5-0.9h2.1c0.3,0,0.6,0.2,0.7,0.5l2.6,8.5h0l4.1-8.9c0.1-0.2,0.3-0.4,0.7-0.4
			h0.2c0.3,0,0.6,0.2,0.7,0.4l4.1,9h0l2.5-8.5c0.2-0.5,0.8-0.5,1.2-0.5h1.5c0.5,0,0.8,0.4,0.6,0.9l-4.5,14.4
			c-0.1,0.2-0.3,0.4-0.7,0.4h-0.2c-0.3,0-0.6-0.2-0.7-0.3l-4.7-10.2h0l-4.7,10.2c-0.1,0.2-0.3,0.3-0.6,0.3h-0.2
			c-0.3,0-0.6-0.2-0.7-0.4L335.6,220z"/>
		<path fill="#00609C" d="M359.6,232.4l0.8-1.5c0.2-0.3,0.6-0.4,1-0.2c0,0,1.7,1,3.6,1c1.1,0,1.9-0.5,1.9-1.3c0-1-0.8-1.5-2.9-2.5
			c-2.4-1-4.4-2.5-4.4-5c0-1.9,1.6-4.2,5.2-4.2c2.1,0,3.8,0.7,4.5,1.2c0.3,0.2,0.5,0.7,0.3,1.1l-0.7,1.3c-0.2,0.3-0.7,0.5-1,0.3
			c0,0-1.7-0.8-3.1-0.8c-1.3,0-1.7,0.6-1.7,1.1c0,1,1,1.4,2.5,2.1c2.8,1.2,5.1,2.4,5.1,5.3c0,2.4-2.3,4.5-5.7,4.5
			c-2.6,0-4.2-0.9-5.1-1.6C359.6,233.1,359.4,232.7,359.6,232.4z"/>
		<path fill="#00609C" d="M380.8,218.7c4,0,7,3,7,7.1c0,0.3,0,0.8-0.1,1c0,0.4-0.3,0.7-0.7,0.7h-10.4c0.1,2.1,1.9,4.1,4.4,4.1
			c1.4,0,2.6-0.6,3.4-1.1c0.5-0.3,0.7-0.4,1,0l1.1,1.5c0.3,0.3,0.4,0.6-0.1,1c-1.1,1-3.1,1.9-5.7,1.9c-4.6,0-7.7-3.6-7.7-8
			C373.1,222.4,376.2,218.7,380.8,218.7z M384.3,225.1c-0.1-1.8-1.6-3.4-3.5-3.4c-2.1,0-3.7,1.5-3.9,3.4H384.3z"/>
		<path fill="#00609C" d="M391.5,219.8c0-0.4,0.3-0.7,0.7-0.7h1.1c0.3,0,0.6,0.2,0.7,0.5l0.4,1.3c0.3-0.4,1.7-2.2,4.5-2.2
			c1.5,0,3.2,0.4,2.8,1.4l-0.9,1.9c-0.2,0.4-0.6,0.5-0.9,0.3c-0.2-0.1-0.8-0.3-1.3-0.3c-2.2,0-3.3,1.6-3.4,1.9v9.7
			c0,0.7-0.4,0.7-1,0.7h-1.8c-0.4,0-0.7-0.3-0.7-0.7V219.8z"/>
		<path fill="#00609C" d="M403.4,232.4l0.8-1.5c0.2-0.3,0.6-0.4,1-0.2c0,0,1.7,1,3.6,1c1.1,0,1.9-0.5,1.9-1.3c0-1-0.8-1.5-2.9-2.5
			c-2.4-1-4.4-2.5-4.4-5c0-1.9,1.6-4.2,5.2-4.2c2.1,0,3.8,0.7,4.5,1.2c0.3,0.2,0.5,0.7,0.3,1.1l-0.7,1.3c-0.2,0.3-0.7,0.5-1,0.3
			c0,0-1.7-0.8-3.1-0.8c-1.3,0-1.7,0.6-1.7,1.1c0,1,1,1.4,2.5,2.1c2.8,1.2,5.1,2.4,5.1,5.3c0,2.4-2.3,4.5-5.7,4.5
			c-2.6,0-4.2-0.9-5.1-1.6C403.4,233.1,403.3,232.7,403.4,232.4z"/>
	</g>
	<g enable-background="new    ">
		<path fill="#00609C" d="M159.2,254.5c-0.3-1,0.3-1.6,1.2-1.6h6.3c0.5,0,1.1,0.5,1.2,1l7.1,27.3h0.3l10.9-28.2
			c0.1-0.4,0.5-0.8,1.2-0.8h1.2c0.7,0,1,0.3,1.2,0.8l11,28.2h0.3l7-27.3c0.1-0.5,0.7-1,1.2-1h6.3c1,0,1.5,0.7,1.2,1.6l-12.9,46
			c-0.1,0.5-0.7,1-1.2,1h-1.1c-0.6,0-1-0.3-1.2-0.8l-12.3-31h-0.3l-12.1,31c-0.2,0.4-0.5,0.8-1.2,0.8h-1.1c-0.5,0-1.1-0.4-1.2-1
			L159.2,254.5z"/>
		<path fill="#00609C" d="M230.8,272.7c7.1,0,12.8,5.3,12.8,12.7c0,0.5-0.1,1.4-0.1,1.8c-0.1,0.7-0.7,1.2-1.3,1.2h-17.5
			c0.2,2.8,2.6,6,6.6,6c2.1,0,4.1-0.8,5.3-1.7c0.7-0.4,1.3-0.5,1.8,0l2.8,3.2c0.5,0.5,0.6,1.2-0.1,1.8c-2.3,2.1-5.8,3.8-10.2,3.8
			c-8.2,0-14-6.5-14-14.4C216.9,279.4,222.7,272.7,230.8,272.7z M235.6,283.7c-0.2-2.5-2.4-4.7-5-4.7c-2.7,0-5,2.1-5.3,4.7H235.6z"
			/>
		<path fill="#00609C" d="M249.4,254.2c0-0.7,0.6-1.3,1.3-1.3h5.8c0.7,0,1.3,0.6,1.3,1.3V274c1.2-0.5,3.4-1.2,6.1-1.2
			c8.1,0,13.6,6.4,13.6,14.4c0,7.9-5.7,14.4-13.1,14.4c-5.8,0-9-4.1-9-4.1l-0.7,2.1c-0.2,0.8-0.7,1.3-1.3,1.3h-2.7
			c-0.7,0-1.3-0.6-1.3-1.3V254.2z M263.3,294.1c3.6,0,6.2-3.1,6.2-7s-2.8-7-6.6-7c-3.4,0-5.3,1.6-5.3,1.6v7.9
			C258,291.3,259.7,294.1,263.3,294.1z"/>
		<path fill="#00609C" d="M294.6,299l21.3-46.1c0.2-0.4,0.5-0.8,1.2-0.8h0.7c0.7,0,1,0.3,1.2,0.8L340,299c0.4,0.9-0.1,1.8-1.2,1.8
			h-6c-1,0-1.5-0.4-2-1.4l-3.4-7.4h-20.5l-3.4,7.4c-0.3,0.7-0.9,1.4-2,1.4h-6C294.8,300.8,294.2,299.9,294.6,299z M324.2,284.4
			l-6.8-15.1h-0.2l-6.7,15.1H324.2z"/>
		<path fill="#00609C" d="M352.3,320c0,0.8-0.4,1.3-1.6,1.3h-5.5c-0.7,0-1.3-0.6-1.3-1.3v-45.3c0-0.8,0.6-1.3,1.3-1.3h2.7
			c0.5,0,1,0.3,1.2,0.8l0.9,2.3c1-1.4,4.4-3.8,8.8-3.8c7.5,0,13.2,6.5,13.2,14.4c0,8.1-6.2,14.4-13.6,14.4c-2.7,0-5.1-1-6.1-1.5V320
			z M357.3,294.1c3.8,0,6.6-3.1,6.6-7s-2.6-7-6.4-7c-3.5,0-5.2,2.7-5.6,4.2v8.2C351.9,292.5,353.8,294.1,357.3,294.1z"/>
		<path fill="#00609C" d="M386.5,320c0,0.8-0.4,1.3-1.6,1.3h-5.5c-0.7,0-1.3-0.6-1.3-1.3v-45.3c0-0.8,0.6-1.3,1.3-1.3h2.7
			c0.5,0,1,0.3,1.2,0.8l0.9,2.3c1-1.4,4.4-3.8,8.8-3.8c7.5,0,13.2,6.5,13.2,14.4c0,8.1-6.2,14.4-13.6,14.4c-2.7,0-5.1-1-6.1-1.5V320
			z M391.5,294.1c3.8,0,6.6-3.1,6.6-7s-2.6-7-6.4-7c-3.5,0-5.2,2.7-5.6,4.2v8.2C386.1,292.5,388.1,294.1,391.5,294.1z"/>
	</g>
</g>
</svg>
